G75*
G70*
%OFA0B0*%
%FSLAX24Y24*%
%IPPOS*%
%LPD*%
%AMOC8*
5,1,8,0,0,1.08239X$1,22.5*
%
%ADD10C,0.0000*%
%ADD11R,0.0690X0.0690*%
%ADD12C,0.0690*%
%ADD13C,0.0640*%
%ADD14C,0.1300*%
%ADD15C,0.0780*%
%ADD16OC8,0.0780*%
D10*
X000353Y000353D02*
X000353Y042353D01*
X065353Y042353D01*
X065353Y000353D01*
X000353Y000353D01*
X016223Y011353D02*
X016225Y011403D01*
X016231Y011453D01*
X016241Y011502D01*
X016255Y011550D01*
X016272Y011597D01*
X016293Y011642D01*
X016318Y011686D01*
X016346Y011727D01*
X016378Y011766D01*
X016412Y011803D01*
X016449Y011837D01*
X016489Y011867D01*
X016531Y011894D01*
X016575Y011918D01*
X016621Y011939D01*
X016668Y011955D01*
X016716Y011968D01*
X016766Y011977D01*
X016815Y011982D01*
X016866Y011983D01*
X016916Y011980D01*
X016965Y011973D01*
X017014Y011962D01*
X017062Y011947D01*
X017108Y011929D01*
X017153Y011907D01*
X017196Y011881D01*
X017237Y011852D01*
X017276Y011820D01*
X017312Y011785D01*
X017344Y011747D01*
X017374Y011707D01*
X017401Y011664D01*
X017424Y011620D01*
X017443Y011574D01*
X017459Y011526D01*
X017471Y011477D01*
X017479Y011428D01*
X017483Y011378D01*
X017483Y011328D01*
X017479Y011278D01*
X017471Y011229D01*
X017459Y011180D01*
X017443Y011132D01*
X017424Y011086D01*
X017401Y011042D01*
X017374Y010999D01*
X017344Y010959D01*
X017312Y010921D01*
X017276Y010886D01*
X017237Y010854D01*
X017196Y010825D01*
X017153Y010799D01*
X017108Y010777D01*
X017062Y010759D01*
X017014Y010744D01*
X016965Y010733D01*
X016916Y010726D01*
X016866Y010723D01*
X016815Y010724D01*
X016766Y010729D01*
X016716Y010738D01*
X016668Y010751D01*
X016621Y010767D01*
X016575Y010788D01*
X016531Y010812D01*
X016489Y010839D01*
X016449Y010869D01*
X016412Y010903D01*
X016378Y010940D01*
X016346Y010979D01*
X016318Y011020D01*
X016293Y011064D01*
X016272Y011109D01*
X016255Y011156D01*
X016241Y011204D01*
X016231Y011253D01*
X016225Y011303D01*
X016223Y011353D01*
X028223Y013353D02*
X028225Y013403D01*
X028231Y013453D01*
X028241Y013502D01*
X028255Y013550D01*
X028272Y013597D01*
X028293Y013642D01*
X028318Y013686D01*
X028346Y013727D01*
X028378Y013766D01*
X028412Y013803D01*
X028449Y013837D01*
X028489Y013867D01*
X028531Y013894D01*
X028575Y013918D01*
X028621Y013939D01*
X028668Y013955D01*
X028716Y013968D01*
X028766Y013977D01*
X028815Y013982D01*
X028866Y013983D01*
X028916Y013980D01*
X028965Y013973D01*
X029014Y013962D01*
X029062Y013947D01*
X029108Y013929D01*
X029153Y013907D01*
X029196Y013881D01*
X029237Y013852D01*
X029276Y013820D01*
X029312Y013785D01*
X029344Y013747D01*
X029374Y013707D01*
X029401Y013664D01*
X029424Y013620D01*
X029443Y013574D01*
X029459Y013526D01*
X029471Y013477D01*
X029479Y013428D01*
X029483Y013378D01*
X029483Y013328D01*
X029479Y013278D01*
X029471Y013229D01*
X029459Y013180D01*
X029443Y013132D01*
X029424Y013086D01*
X029401Y013042D01*
X029374Y012999D01*
X029344Y012959D01*
X029312Y012921D01*
X029276Y012886D01*
X029237Y012854D01*
X029196Y012825D01*
X029153Y012799D01*
X029108Y012777D01*
X029062Y012759D01*
X029014Y012744D01*
X028965Y012733D01*
X028916Y012726D01*
X028866Y012723D01*
X028815Y012724D01*
X028766Y012729D01*
X028716Y012738D01*
X028668Y012751D01*
X028621Y012767D01*
X028575Y012788D01*
X028531Y012812D01*
X028489Y012839D01*
X028449Y012869D01*
X028412Y012903D01*
X028378Y012940D01*
X028346Y012979D01*
X028318Y013020D01*
X028293Y013064D01*
X028272Y013109D01*
X028255Y013156D01*
X028241Y013204D01*
X028231Y013253D01*
X028225Y013303D01*
X028223Y013353D01*
X028223Y024353D02*
X028225Y024403D01*
X028231Y024453D01*
X028241Y024502D01*
X028255Y024550D01*
X028272Y024597D01*
X028293Y024642D01*
X028318Y024686D01*
X028346Y024727D01*
X028378Y024766D01*
X028412Y024803D01*
X028449Y024837D01*
X028489Y024867D01*
X028531Y024894D01*
X028575Y024918D01*
X028621Y024939D01*
X028668Y024955D01*
X028716Y024968D01*
X028766Y024977D01*
X028815Y024982D01*
X028866Y024983D01*
X028916Y024980D01*
X028965Y024973D01*
X029014Y024962D01*
X029062Y024947D01*
X029108Y024929D01*
X029153Y024907D01*
X029196Y024881D01*
X029237Y024852D01*
X029276Y024820D01*
X029312Y024785D01*
X029344Y024747D01*
X029374Y024707D01*
X029401Y024664D01*
X029424Y024620D01*
X029443Y024574D01*
X029459Y024526D01*
X029471Y024477D01*
X029479Y024428D01*
X029483Y024378D01*
X029483Y024328D01*
X029479Y024278D01*
X029471Y024229D01*
X029459Y024180D01*
X029443Y024132D01*
X029424Y024086D01*
X029401Y024042D01*
X029374Y023999D01*
X029344Y023959D01*
X029312Y023921D01*
X029276Y023886D01*
X029237Y023854D01*
X029196Y023825D01*
X029153Y023799D01*
X029108Y023777D01*
X029062Y023759D01*
X029014Y023744D01*
X028965Y023733D01*
X028916Y023726D01*
X028866Y023723D01*
X028815Y023724D01*
X028766Y023729D01*
X028716Y023738D01*
X028668Y023751D01*
X028621Y023767D01*
X028575Y023788D01*
X028531Y023812D01*
X028489Y023839D01*
X028449Y023869D01*
X028412Y023903D01*
X028378Y023940D01*
X028346Y023979D01*
X028318Y024020D01*
X028293Y024064D01*
X028272Y024109D01*
X028255Y024156D01*
X028241Y024204D01*
X028231Y024253D01*
X028225Y024303D01*
X028223Y024353D01*
X018723Y030353D02*
X018725Y030403D01*
X018731Y030453D01*
X018741Y030502D01*
X018755Y030550D01*
X018772Y030597D01*
X018793Y030642D01*
X018818Y030686D01*
X018846Y030727D01*
X018878Y030766D01*
X018912Y030803D01*
X018949Y030837D01*
X018989Y030867D01*
X019031Y030894D01*
X019075Y030918D01*
X019121Y030939D01*
X019168Y030955D01*
X019216Y030968D01*
X019266Y030977D01*
X019315Y030982D01*
X019366Y030983D01*
X019416Y030980D01*
X019465Y030973D01*
X019514Y030962D01*
X019562Y030947D01*
X019608Y030929D01*
X019653Y030907D01*
X019696Y030881D01*
X019737Y030852D01*
X019776Y030820D01*
X019812Y030785D01*
X019844Y030747D01*
X019874Y030707D01*
X019901Y030664D01*
X019924Y030620D01*
X019943Y030574D01*
X019959Y030526D01*
X019971Y030477D01*
X019979Y030428D01*
X019983Y030378D01*
X019983Y030328D01*
X019979Y030278D01*
X019971Y030229D01*
X019959Y030180D01*
X019943Y030132D01*
X019924Y030086D01*
X019901Y030042D01*
X019874Y029999D01*
X019844Y029959D01*
X019812Y029921D01*
X019776Y029886D01*
X019737Y029854D01*
X019696Y029825D01*
X019653Y029799D01*
X019608Y029777D01*
X019562Y029759D01*
X019514Y029744D01*
X019465Y029733D01*
X019416Y029726D01*
X019366Y029723D01*
X019315Y029724D01*
X019266Y029729D01*
X019216Y029738D01*
X019168Y029751D01*
X019121Y029767D01*
X019075Y029788D01*
X019031Y029812D01*
X018989Y029839D01*
X018949Y029869D01*
X018912Y029903D01*
X018878Y029940D01*
X018846Y029979D01*
X018818Y030020D01*
X018793Y030064D01*
X018772Y030109D01*
X018755Y030156D01*
X018741Y030204D01*
X018731Y030253D01*
X018725Y030303D01*
X018723Y030353D01*
X048223Y030353D02*
X048225Y030403D01*
X048231Y030453D01*
X048241Y030502D01*
X048255Y030550D01*
X048272Y030597D01*
X048293Y030642D01*
X048318Y030686D01*
X048346Y030727D01*
X048378Y030766D01*
X048412Y030803D01*
X048449Y030837D01*
X048489Y030867D01*
X048531Y030894D01*
X048575Y030918D01*
X048621Y030939D01*
X048668Y030955D01*
X048716Y030968D01*
X048766Y030977D01*
X048815Y030982D01*
X048866Y030983D01*
X048916Y030980D01*
X048965Y030973D01*
X049014Y030962D01*
X049062Y030947D01*
X049108Y030929D01*
X049153Y030907D01*
X049196Y030881D01*
X049237Y030852D01*
X049276Y030820D01*
X049312Y030785D01*
X049344Y030747D01*
X049374Y030707D01*
X049401Y030664D01*
X049424Y030620D01*
X049443Y030574D01*
X049459Y030526D01*
X049471Y030477D01*
X049479Y030428D01*
X049483Y030378D01*
X049483Y030328D01*
X049479Y030278D01*
X049471Y030229D01*
X049459Y030180D01*
X049443Y030132D01*
X049424Y030086D01*
X049401Y030042D01*
X049374Y029999D01*
X049344Y029959D01*
X049312Y029921D01*
X049276Y029886D01*
X049237Y029854D01*
X049196Y029825D01*
X049153Y029799D01*
X049108Y029777D01*
X049062Y029759D01*
X049014Y029744D01*
X048965Y029733D01*
X048916Y029726D01*
X048866Y029723D01*
X048815Y029724D01*
X048766Y029729D01*
X048716Y029738D01*
X048668Y029751D01*
X048621Y029767D01*
X048575Y029788D01*
X048531Y029812D01*
X048489Y029839D01*
X048449Y029869D01*
X048412Y029903D01*
X048378Y029940D01*
X048346Y029979D01*
X048318Y030020D01*
X048293Y030064D01*
X048272Y030109D01*
X048255Y030156D01*
X048241Y030204D01*
X048231Y030253D01*
X048225Y030303D01*
X048223Y030353D01*
X048723Y011353D02*
X048725Y011403D01*
X048731Y011453D01*
X048741Y011502D01*
X048755Y011550D01*
X048772Y011597D01*
X048793Y011642D01*
X048818Y011686D01*
X048846Y011727D01*
X048878Y011766D01*
X048912Y011803D01*
X048949Y011837D01*
X048989Y011867D01*
X049031Y011894D01*
X049075Y011918D01*
X049121Y011939D01*
X049168Y011955D01*
X049216Y011968D01*
X049266Y011977D01*
X049315Y011982D01*
X049366Y011983D01*
X049416Y011980D01*
X049465Y011973D01*
X049514Y011962D01*
X049562Y011947D01*
X049608Y011929D01*
X049653Y011907D01*
X049696Y011881D01*
X049737Y011852D01*
X049776Y011820D01*
X049812Y011785D01*
X049844Y011747D01*
X049874Y011707D01*
X049901Y011664D01*
X049924Y011620D01*
X049943Y011574D01*
X049959Y011526D01*
X049971Y011477D01*
X049979Y011428D01*
X049983Y011378D01*
X049983Y011328D01*
X049979Y011278D01*
X049971Y011229D01*
X049959Y011180D01*
X049943Y011132D01*
X049924Y011086D01*
X049901Y011042D01*
X049874Y010999D01*
X049844Y010959D01*
X049812Y010921D01*
X049776Y010886D01*
X049737Y010854D01*
X049696Y010825D01*
X049653Y010799D01*
X049608Y010777D01*
X049562Y010759D01*
X049514Y010744D01*
X049465Y010733D01*
X049416Y010726D01*
X049366Y010723D01*
X049315Y010724D01*
X049266Y010729D01*
X049216Y010738D01*
X049168Y010751D01*
X049121Y010767D01*
X049075Y010788D01*
X049031Y010812D01*
X048989Y010839D01*
X048949Y010869D01*
X048912Y010903D01*
X048878Y010940D01*
X048846Y010979D01*
X048818Y011020D01*
X048793Y011064D01*
X048772Y011109D01*
X048755Y011156D01*
X048741Y011204D01*
X048731Y011253D01*
X048725Y011303D01*
X048723Y011353D01*
D11*
X049050Y002010D03*
X051811Y002010D03*
X054573Y002010D03*
X057335Y002010D03*
X063353Y003861D03*
X063353Y006611D03*
X063353Y009361D03*
X063353Y012111D03*
X063353Y014861D03*
X063353Y017611D03*
X063353Y020361D03*
X063353Y023111D03*
X063353Y025861D03*
X063353Y028611D03*
X063353Y031361D03*
X063353Y034111D03*
X063353Y036861D03*
X063128Y040353D03*
X060211Y040353D03*
X057093Y040353D03*
X054304Y040353D03*
X051514Y040353D03*
X048764Y040353D03*
X046014Y040353D03*
X043264Y040353D03*
X040514Y040353D03*
X037770Y040353D03*
X035020Y040353D03*
X032270Y040353D03*
X029520Y040353D03*
X026741Y040353D03*
X024014Y040353D03*
X021264Y040353D03*
X018514Y040353D03*
X015764Y040353D03*
X013014Y040353D03*
X010264Y040353D03*
X002353Y036553D03*
X002353Y033703D03*
X002353Y030853D03*
X002353Y028003D03*
X002353Y025153D03*
X002353Y022303D03*
X002353Y019453D03*
X002353Y016603D03*
X002353Y013753D03*
X002353Y010903D03*
X002353Y008053D03*
X002353Y005203D03*
X002353Y002353D03*
X038061Y002010D03*
X040811Y002010D03*
X043561Y002010D03*
X046288Y002010D03*
D12*
X047288Y002010D03*
X044561Y002010D03*
X041811Y002010D03*
X039061Y002010D03*
X050050Y002010D03*
X052811Y002010D03*
X055573Y002010D03*
X058335Y002010D03*
X063353Y004861D03*
X063353Y007611D03*
X063353Y010361D03*
X063353Y013111D03*
X063353Y015861D03*
X063353Y018611D03*
X063353Y021361D03*
X063353Y024111D03*
X063353Y026861D03*
X063353Y029611D03*
X063353Y032361D03*
X063353Y035111D03*
X063353Y037861D03*
X062128Y040353D03*
X059211Y040353D03*
X056093Y040353D03*
X053304Y040353D03*
X050514Y040353D03*
X047764Y040353D03*
X045014Y040353D03*
X042264Y040353D03*
X039514Y040353D03*
X036770Y040353D03*
X034020Y040353D03*
X031270Y040353D03*
X028520Y040353D03*
X025741Y040353D03*
X023014Y040353D03*
X020264Y040353D03*
X017514Y040353D03*
X014764Y040353D03*
X012014Y040353D03*
X009264Y040353D03*
X002353Y037553D03*
X002353Y034703D03*
X002353Y031853D03*
X002353Y029003D03*
X002353Y026153D03*
X002353Y023303D03*
X002353Y020453D03*
X002353Y017603D03*
X002353Y014753D03*
X002353Y011903D03*
X002353Y009053D03*
X002353Y006203D03*
X002353Y003353D03*
D13*
X038107Y008923D02*
X038107Y009523D01*
X039107Y009523D02*
X039107Y008923D01*
X040107Y008923D02*
X040107Y009523D01*
X043577Y009523D02*
X043577Y008923D01*
X044577Y008923D02*
X044577Y009523D01*
X045577Y009523D02*
X045577Y008923D01*
X049048Y008923D02*
X049048Y009523D01*
X050048Y009523D02*
X050048Y008923D01*
X051048Y008923D02*
X051048Y009523D01*
X054571Y009523D02*
X054571Y008923D01*
X055571Y008923D02*
X055571Y009523D01*
X056571Y009523D02*
X056571Y008923D01*
X057349Y005553D02*
X057349Y004953D01*
X058349Y004953D02*
X058349Y005553D01*
X059349Y005553D02*
X059349Y004953D01*
X053809Y004953D02*
X053809Y005553D01*
X052809Y005553D02*
X052809Y004953D01*
X051809Y004953D02*
X051809Y005553D01*
X048280Y005553D02*
X048280Y004953D01*
X047280Y004953D02*
X047280Y005553D01*
X046280Y005553D02*
X046280Y004953D01*
X042804Y004953D02*
X042804Y005553D01*
X041804Y005553D02*
X041804Y004953D01*
X040804Y004953D02*
X040804Y005553D01*
X040508Y033553D02*
X040508Y034153D01*
X039508Y034153D02*
X039508Y033553D01*
X038508Y033553D02*
X038508Y034153D01*
X035054Y034153D02*
X035054Y033553D01*
X034054Y033553D02*
X034054Y034153D01*
X033054Y034153D02*
X033054Y033553D01*
X029530Y033553D02*
X029530Y034153D01*
X028530Y034153D02*
X028530Y033553D01*
X027530Y033553D02*
X027530Y034153D01*
X024028Y034153D02*
X024028Y033553D01*
X023028Y033553D02*
X023028Y034153D01*
X022028Y034153D02*
X022028Y033553D01*
X018508Y033553D02*
X018508Y034153D01*
X017508Y034153D02*
X017508Y033553D01*
X016508Y033553D02*
X016508Y034153D01*
X013008Y034153D02*
X013008Y033553D01*
X012008Y033553D02*
X012008Y034153D01*
X011008Y034153D02*
X011008Y033553D01*
X010258Y037553D02*
X010258Y038153D01*
X009258Y038153D02*
X009258Y037553D01*
X008258Y037553D02*
X008258Y038153D01*
X013758Y038153D02*
X013758Y037553D01*
X014758Y037553D02*
X014758Y038153D01*
X015758Y038153D02*
X015758Y037553D01*
X019258Y037553D02*
X019258Y038153D01*
X020258Y038153D02*
X020258Y037553D01*
X021258Y037553D02*
X021258Y038153D01*
X024735Y038153D02*
X024735Y037553D01*
X025735Y037553D02*
X025735Y038153D01*
X026735Y038153D02*
X026735Y037553D01*
X030272Y037553D02*
X030272Y038153D01*
X031272Y038153D02*
X031272Y037553D01*
X032272Y037553D02*
X032272Y038153D01*
X035776Y038153D02*
X035776Y037553D01*
X036776Y037553D02*
X036776Y038153D01*
X037776Y038153D02*
X037776Y037553D01*
X041258Y037553D02*
X041258Y038153D01*
X042258Y038153D02*
X042258Y037553D01*
X043258Y037553D02*
X043258Y038153D01*
X046758Y038153D02*
X046758Y037553D01*
X047758Y037553D02*
X047758Y038153D01*
X048758Y038153D02*
X048758Y037553D01*
X052258Y037553D02*
X052258Y038153D01*
X053258Y038153D02*
X053258Y037553D01*
X054258Y037553D02*
X054258Y038153D01*
X051522Y034153D02*
X051522Y033553D01*
X050522Y033553D02*
X050522Y034153D01*
X049522Y034153D02*
X049522Y033553D01*
X046028Y033553D02*
X046028Y034153D01*
X045028Y034153D02*
X045028Y033553D01*
X044028Y033553D02*
X044028Y034153D01*
D14*
X048853Y030353D03*
X028853Y024353D03*
X019353Y030353D03*
X028853Y013353D03*
X016853Y011353D03*
X049353Y011353D03*
D15*
X041853Y011353D03*
X040853Y011353D03*
X039853Y011353D03*
X038853Y011353D03*
X037853Y011353D03*
X036853Y011353D03*
X034853Y011353D03*
X033853Y011353D03*
X032853Y011353D03*
X031853Y011353D03*
X030853Y011353D03*
X029853Y011353D03*
X028853Y011353D03*
X027853Y011353D03*
X025853Y011353D03*
X024853Y011353D03*
X023853Y011353D03*
X022853Y011353D03*
X021853Y011353D03*
X020853Y011353D03*
X019853Y011353D03*
X018853Y011353D03*
X017853Y013353D03*
X016853Y013353D03*
X016853Y030353D03*
X017853Y030353D03*
X020853Y030353D03*
X021853Y030353D03*
X022853Y030353D03*
X023853Y030353D03*
X024853Y030353D03*
X025853Y030353D03*
X026853Y030353D03*
X027853Y030353D03*
X029853Y030353D03*
X030853Y030353D03*
X031853Y030353D03*
X032853Y030353D03*
X033853Y030353D03*
X034853Y030353D03*
X035853Y030353D03*
X036853Y030353D03*
X038453Y030353D03*
X039453Y030353D03*
X040453Y030353D03*
X041453Y030353D03*
X042453Y030353D03*
X043453Y030353D03*
X044453Y030353D03*
X045453Y030353D03*
D16*
X017853Y029353D03*
X017853Y028353D03*
X016853Y028353D03*
X016853Y029353D03*
X016853Y027353D03*
X017853Y027353D03*
X017853Y026353D03*
X017853Y025353D03*
X016853Y025353D03*
X016853Y026353D03*
X016853Y024353D03*
X017853Y024353D03*
X017853Y023353D03*
X017853Y022353D03*
X016853Y022353D03*
X016853Y023353D03*
X016853Y021353D03*
X017853Y021353D03*
X017853Y020353D03*
X017853Y019353D03*
X016853Y019353D03*
X016853Y020353D03*
X016853Y018353D03*
X017853Y018353D03*
X017853Y017353D03*
X017853Y016353D03*
X016853Y016353D03*
X016853Y017353D03*
X016853Y015353D03*
X017853Y015353D03*
X017853Y014353D03*
X016853Y014353D03*
M02*
