%
M48
M72
T01C0.0400
T02C0.0433
T03C0.1260
%
T01
X18853Y11353
X19853Y11353
X20853Y11353
X21853Y11353
X22853Y11353
X23853Y11353
X24853Y11353
X25853Y11353
X27853Y11353
X28853Y11353
X29853Y11353
X30853Y11353
X31853Y11353
X32853Y11353
X33853Y11353
X34853Y11353
X36853Y11353
X37853Y11353
X38853Y11353
X39853Y11353
X40853Y11353
X41853Y11353
X43577Y9223
X44577Y9223
X45577Y9223
X49048Y9223
X50048Y9223
X51048Y9223
X54571Y9223
X55571Y9223
X56571Y9223
X57349Y5253
X58349Y5253
X59349Y5253
X53809Y5253
X52809Y5253
X51809Y5253
X48280Y5253
X47280Y5253
X46280Y5253
X42804Y5253
X41804Y5253
X40804Y5253
X40107Y9223
X39107Y9223
X38107Y9223
X17853Y13353
X17853Y14353
X17853Y15353
X16853Y15353
X16853Y14353
X16853Y13353
X16853Y16353
X16853Y17353
X16853Y18353
X17853Y18353
X17853Y17353
X17853Y16353
X17853Y19353
X17853Y20353
X17853Y21353
X16853Y21353
X16853Y20353
X16853Y19353
X16853Y22353
X16853Y23353
X16853Y24353
X17853Y24353
X17853Y23353
X17853Y22353
X17853Y25353
X17853Y26353
X17853Y27353
X16853Y27353
X16853Y26353
X16853Y25353
X16853Y28353
X16853Y29353
X16853Y30353
X17853Y30353
X17853Y29353
X17853Y28353
X20853Y30353
X21853Y30353
X22853Y30353
X23853Y30353
X24853Y30353
X25853Y30353
X26853Y30353
X27853Y30353
X29853Y30353
X30853Y30353
X31853Y30353
X32853Y30353
X33853Y30353
X34853Y30353
X35853Y30353
X36853Y30353
X38453Y30353
X39453Y30353
X40453Y30353
X41453Y30353
X42453Y30353
X43453Y30353
X44453Y30353
X45453Y30353
X45028Y33853
X44028Y33853
X46028Y33853
X49522Y33853
X50522Y33853
X51522Y33853
X52258Y37853
X53258Y37853
X54258Y37853
X48758Y37853
X47758Y37853
X46758Y37853
X43258Y37853
X42258Y37853
X41258Y37853
X37776Y37853
X36776Y37853
X35776Y37853
X32272Y37853
X31272Y37853
X30272Y37853
X26735Y37853
X25735Y37853
X24735Y37853
X21258Y37853
X20258Y37853
X19258Y37853
X15758Y37853
X14758Y37853
X13758Y37853
X10258Y37853
X9258Y37853
X8258Y37853
X11008Y33853
X12008Y33853
X13008Y33853
X16508Y33853
X17508Y33853
X18508Y33853
X22028Y33853
X23028Y33853
X24028Y33853
X27530Y33853
X28530Y33853
X29530Y33853
X33054Y33853
X34054Y33853
X35054Y33853
X38508Y33853
X39508Y33853
X40508Y33853
T02
X2353Y2353
X2353Y3353
X2353Y5203
X2353Y6203
X2353Y8053
X2353Y9053
X2353Y10903
X2353Y11903
X2353Y13753
X2353Y14753
X2353Y16603
X2353Y17603
X2353Y19453
X2353Y20453
X2353Y22303
X2353Y23303
X2353Y25153
X2353Y26153
X2353Y28003
X2353Y29003
X2353Y30853
X2353Y31853
X2353Y33703
X2353Y34703
X2353Y36553
X2353Y37553
X9264Y40353
X10264Y40353
X12014Y40353
X13014Y40353
X14764Y40353
X15764Y40353
X17514Y40353
X18514Y40353
X20264Y40353
X21264Y40353
X23014Y40353
X24014Y40353
X25741Y40353
X26741Y40353
X28520Y40353
X29520Y40353
X31270Y40353
X32270Y40353
X34020Y40353
X35020Y40353
X36770Y40353
X37770Y40353
X39514Y40353
X40514Y40353
X42264Y40353
X43264Y40353
X45014Y40353
X46014Y40353
X47764Y40353
X48764Y40353
X50514Y40353
X51514Y40353
X53304Y40353
X54304Y40353
X56093Y40353
X57093Y40353
X59211Y40353
X60211Y40353
X62128Y40353
X63128Y40353
X63353Y37861
X63353Y36861
X63353Y35111
X63353Y34111
X63353Y32361
X63353Y31361
X63353Y29611
X63353Y28611
X63353Y26861
X63353Y25861
X63353Y24111
X63353Y23111
X63353Y21361
X63353Y20361
X63353Y18611
X63353Y17611
X63353Y15861
X63353Y14861
X63353Y13111
X63353Y12111
X63353Y10361
X63353Y9361
X63353Y7611
X63353Y6611
X63353Y4861
X63353Y3861
X58335Y2010
X57335Y2010
X55573Y2010
X54573Y2010
X52811Y2010
X51811Y2010
X50050Y2010
X49050Y2010
X47288Y2010
X46288Y2010
X44561Y2010
X43561Y2010
X41811Y2010
X40811Y2010
X39061Y2010
X38061Y2010
T03
X49353Y11353
X28853Y13353
X16853Y11353
X28853Y24353
X19353Y30353
X48853Y30353
M30
