G75*
G70*
%OFA0B0*%
%FSLAX24Y24*%
%IPPOS*%
%LPD*%
%AMOC8*
5,1,8,0,0,1.08239X$1,22.5*
%
%ADD10C,0.0000*%
%ADD11C,0.0060*%
%ADD12C,0.0080*%
%ADD13C,0.0050*%
%ADD14C,0.0200*%
%ADD15R,0.4200X0.0300*%
%ADD16R,0.0750X0.0200*%
%ADD17R,0.0300X0.0200*%
%ADD18C,0.0059*%
D10*
X000353Y000353D02*
X000353Y042353D01*
X065353Y042353D01*
X065353Y000353D01*
X000353Y000353D01*
X016223Y011353D02*
X016225Y011403D01*
X016231Y011453D01*
X016241Y011502D01*
X016255Y011550D01*
X016272Y011597D01*
X016293Y011642D01*
X016318Y011686D01*
X016346Y011727D01*
X016378Y011766D01*
X016412Y011803D01*
X016449Y011837D01*
X016489Y011867D01*
X016531Y011894D01*
X016575Y011918D01*
X016621Y011939D01*
X016668Y011955D01*
X016716Y011968D01*
X016766Y011977D01*
X016815Y011982D01*
X016866Y011983D01*
X016916Y011980D01*
X016965Y011973D01*
X017014Y011962D01*
X017062Y011947D01*
X017108Y011929D01*
X017153Y011907D01*
X017196Y011881D01*
X017237Y011852D01*
X017276Y011820D01*
X017312Y011785D01*
X017344Y011747D01*
X017374Y011707D01*
X017401Y011664D01*
X017424Y011620D01*
X017443Y011574D01*
X017459Y011526D01*
X017471Y011477D01*
X017479Y011428D01*
X017483Y011378D01*
X017483Y011328D01*
X017479Y011278D01*
X017471Y011229D01*
X017459Y011180D01*
X017443Y011132D01*
X017424Y011086D01*
X017401Y011042D01*
X017374Y010999D01*
X017344Y010959D01*
X017312Y010921D01*
X017276Y010886D01*
X017237Y010854D01*
X017196Y010825D01*
X017153Y010799D01*
X017108Y010777D01*
X017062Y010759D01*
X017014Y010744D01*
X016965Y010733D01*
X016916Y010726D01*
X016866Y010723D01*
X016815Y010724D01*
X016766Y010729D01*
X016716Y010738D01*
X016668Y010751D01*
X016621Y010767D01*
X016575Y010788D01*
X016531Y010812D01*
X016489Y010839D01*
X016449Y010869D01*
X016412Y010903D01*
X016378Y010940D01*
X016346Y010979D01*
X016318Y011020D01*
X016293Y011064D01*
X016272Y011109D01*
X016255Y011156D01*
X016241Y011204D01*
X016231Y011253D01*
X016225Y011303D01*
X016223Y011353D01*
X028223Y013353D02*
X028225Y013403D01*
X028231Y013453D01*
X028241Y013502D01*
X028255Y013550D01*
X028272Y013597D01*
X028293Y013642D01*
X028318Y013686D01*
X028346Y013727D01*
X028378Y013766D01*
X028412Y013803D01*
X028449Y013837D01*
X028489Y013867D01*
X028531Y013894D01*
X028575Y013918D01*
X028621Y013939D01*
X028668Y013955D01*
X028716Y013968D01*
X028766Y013977D01*
X028815Y013982D01*
X028866Y013983D01*
X028916Y013980D01*
X028965Y013973D01*
X029014Y013962D01*
X029062Y013947D01*
X029108Y013929D01*
X029153Y013907D01*
X029196Y013881D01*
X029237Y013852D01*
X029276Y013820D01*
X029312Y013785D01*
X029344Y013747D01*
X029374Y013707D01*
X029401Y013664D01*
X029424Y013620D01*
X029443Y013574D01*
X029459Y013526D01*
X029471Y013477D01*
X029479Y013428D01*
X029483Y013378D01*
X029483Y013328D01*
X029479Y013278D01*
X029471Y013229D01*
X029459Y013180D01*
X029443Y013132D01*
X029424Y013086D01*
X029401Y013042D01*
X029374Y012999D01*
X029344Y012959D01*
X029312Y012921D01*
X029276Y012886D01*
X029237Y012854D01*
X029196Y012825D01*
X029153Y012799D01*
X029108Y012777D01*
X029062Y012759D01*
X029014Y012744D01*
X028965Y012733D01*
X028916Y012726D01*
X028866Y012723D01*
X028815Y012724D01*
X028766Y012729D01*
X028716Y012738D01*
X028668Y012751D01*
X028621Y012767D01*
X028575Y012788D01*
X028531Y012812D01*
X028489Y012839D01*
X028449Y012869D01*
X028412Y012903D01*
X028378Y012940D01*
X028346Y012979D01*
X028318Y013020D01*
X028293Y013064D01*
X028272Y013109D01*
X028255Y013156D01*
X028241Y013204D01*
X028231Y013253D01*
X028225Y013303D01*
X028223Y013353D01*
X028223Y024353D02*
X028225Y024403D01*
X028231Y024453D01*
X028241Y024502D01*
X028255Y024550D01*
X028272Y024597D01*
X028293Y024642D01*
X028318Y024686D01*
X028346Y024727D01*
X028378Y024766D01*
X028412Y024803D01*
X028449Y024837D01*
X028489Y024867D01*
X028531Y024894D01*
X028575Y024918D01*
X028621Y024939D01*
X028668Y024955D01*
X028716Y024968D01*
X028766Y024977D01*
X028815Y024982D01*
X028866Y024983D01*
X028916Y024980D01*
X028965Y024973D01*
X029014Y024962D01*
X029062Y024947D01*
X029108Y024929D01*
X029153Y024907D01*
X029196Y024881D01*
X029237Y024852D01*
X029276Y024820D01*
X029312Y024785D01*
X029344Y024747D01*
X029374Y024707D01*
X029401Y024664D01*
X029424Y024620D01*
X029443Y024574D01*
X029459Y024526D01*
X029471Y024477D01*
X029479Y024428D01*
X029483Y024378D01*
X029483Y024328D01*
X029479Y024278D01*
X029471Y024229D01*
X029459Y024180D01*
X029443Y024132D01*
X029424Y024086D01*
X029401Y024042D01*
X029374Y023999D01*
X029344Y023959D01*
X029312Y023921D01*
X029276Y023886D01*
X029237Y023854D01*
X029196Y023825D01*
X029153Y023799D01*
X029108Y023777D01*
X029062Y023759D01*
X029014Y023744D01*
X028965Y023733D01*
X028916Y023726D01*
X028866Y023723D01*
X028815Y023724D01*
X028766Y023729D01*
X028716Y023738D01*
X028668Y023751D01*
X028621Y023767D01*
X028575Y023788D01*
X028531Y023812D01*
X028489Y023839D01*
X028449Y023869D01*
X028412Y023903D01*
X028378Y023940D01*
X028346Y023979D01*
X028318Y024020D01*
X028293Y024064D01*
X028272Y024109D01*
X028255Y024156D01*
X028241Y024204D01*
X028231Y024253D01*
X028225Y024303D01*
X028223Y024353D01*
X018723Y030353D02*
X018725Y030403D01*
X018731Y030453D01*
X018741Y030502D01*
X018755Y030550D01*
X018772Y030597D01*
X018793Y030642D01*
X018818Y030686D01*
X018846Y030727D01*
X018878Y030766D01*
X018912Y030803D01*
X018949Y030837D01*
X018989Y030867D01*
X019031Y030894D01*
X019075Y030918D01*
X019121Y030939D01*
X019168Y030955D01*
X019216Y030968D01*
X019266Y030977D01*
X019315Y030982D01*
X019366Y030983D01*
X019416Y030980D01*
X019465Y030973D01*
X019514Y030962D01*
X019562Y030947D01*
X019608Y030929D01*
X019653Y030907D01*
X019696Y030881D01*
X019737Y030852D01*
X019776Y030820D01*
X019812Y030785D01*
X019844Y030747D01*
X019874Y030707D01*
X019901Y030664D01*
X019924Y030620D01*
X019943Y030574D01*
X019959Y030526D01*
X019971Y030477D01*
X019979Y030428D01*
X019983Y030378D01*
X019983Y030328D01*
X019979Y030278D01*
X019971Y030229D01*
X019959Y030180D01*
X019943Y030132D01*
X019924Y030086D01*
X019901Y030042D01*
X019874Y029999D01*
X019844Y029959D01*
X019812Y029921D01*
X019776Y029886D01*
X019737Y029854D01*
X019696Y029825D01*
X019653Y029799D01*
X019608Y029777D01*
X019562Y029759D01*
X019514Y029744D01*
X019465Y029733D01*
X019416Y029726D01*
X019366Y029723D01*
X019315Y029724D01*
X019266Y029729D01*
X019216Y029738D01*
X019168Y029751D01*
X019121Y029767D01*
X019075Y029788D01*
X019031Y029812D01*
X018989Y029839D01*
X018949Y029869D01*
X018912Y029903D01*
X018878Y029940D01*
X018846Y029979D01*
X018818Y030020D01*
X018793Y030064D01*
X018772Y030109D01*
X018755Y030156D01*
X018741Y030204D01*
X018731Y030253D01*
X018725Y030303D01*
X018723Y030353D01*
X048223Y030353D02*
X048225Y030403D01*
X048231Y030453D01*
X048241Y030502D01*
X048255Y030550D01*
X048272Y030597D01*
X048293Y030642D01*
X048318Y030686D01*
X048346Y030727D01*
X048378Y030766D01*
X048412Y030803D01*
X048449Y030837D01*
X048489Y030867D01*
X048531Y030894D01*
X048575Y030918D01*
X048621Y030939D01*
X048668Y030955D01*
X048716Y030968D01*
X048766Y030977D01*
X048815Y030982D01*
X048866Y030983D01*
X048916Y030980D01*
X048965Y030973D01*
X049014Y030962D01*
X049062Y030947D01*
X049108Y030929D01*
X049153Y030907D01*
X049196Y030881D01*
X049237Y030852D01*
X049276Y030820D01*
X049312Y030785D01*
X049344Y030747D01*
X049374Y030707D01*
X049401Y030664D01*
X049424Y030620D01*
X049443Y030574D01*
X049459Y030526D01*
X049471Y030477D01*
X049479Y030428D01*
X049483Y030378D01*
X049483Y030328D01*
X049479Y030278D01*
X049471Y030229D01*
X049459Y030180D01*
X049443Y030132D01*
X049424Y030086D01*
X049401Y030042D01*
X049374Y029999D01*
X049344Y029959D01*
X049312Y029921D01*
X049276Y029886D01*
X049237Y029854D01*
X049196Y029825D01*
X049153Y029799D01*
X049108Y029777D01*
X049062Y029759D01*
X049014Y029744D01*
X048965Y029733D01*
X048916Y029726D01*
X048866Y029723D01*
X048815Y029724D01*
X048766Y029729D01*
X048716Y029738D01*
X048668Y029751D01*
X048621Y029767D01*
X048575Y029788D01*
X048531Y029812D01*
X048489Y029839D01*
X048449Y029869D01*
X048412Y029903D01*
X048378Y029940D01*
X048346Y029979D01*
X048318Y030020D01*
X048293Y030064D01*
X048272Y030109D01*
X048255Y030156D01*
X048241Y030204D01*
X048231Y030253D01*
X048225Y030303D01*
X048223Y030353D01*
X048723Y011353D02*
X048725Y011403D01*
X048731Y011453D01*
X048741Y011502D01*
X048755Y011550D01*
X048772Y011597D01*
X048793Y011642D01*
X048818Y011686D01*
X048846Y011727D01*
X048878Y011766D01*
X048912Y011803D01*
X048949Y011837D01*
X048989Y011867D01*
X049031Y011894D01*
X049075Y011918D01*
X049121Y011939D01*
X049168Y011955D01*
X049216Y011968D01*
X049266Y011977D01*
X049315Y011982D01*
X049366Y011983D01*
X049416Y011980D01*
X049465Y011973D01*
X049514Y011962D01*
X049562Y011947D01*
X049608Y011929D01*
X049653Y011907D01*
X049696Y011881D01*
X049737Y011852D01*
X049776Y011820D01*
X049812Y011785D01*
X049844Y011747D01*
X049874Y011707D01*
X049901Y011664D01*
X049924Y011620D01*
X049943Y011574D01*
X049959Y011526D01*
X049971Y011477D01*
X049979Y011428D01*
X049983Y011378D01*
X049983Y011328D01*
X049979Y011278D01*
X049971Y011229D01*
X049959Y011180D01*
X049943Y011132D01*
X049924Y011086D01*
X049901Y011042D01*
X049874Y010999D01*
X049844Y010959D01*
X049812Y010921D01*
X049776Y010886D01*
X049737Y010854D01*
X049696Y010825D01*
X049653Y010799D01*
X049608Y010777D01*
X049562Y010759D01*
X049514Y010744D01*
X049465Y010733D01*
X049416Y010726D01*
X049366Y010723D01*
X049315Y010724D01*
X049266Y010729D01*
X049216Y010738D01*
X049168Y010751D01*
X049121Y010767D01*
X049075Y010788D01*
X049031Y010812D01*
X048989Y010839D01*
X048949Y010869D01*
X048912Y010903D01*
X048878Y010940D01*
X048846Y010979D01*
X048818Y011020D01*
X048793Y011064D01*
X048772Y011109D01*
X048755Y011156D01*
X048741Y011204D01*
X048731Y011253D01*
X048725Y011303D01*
X048723Y011353D01*
D11*
X047948Y011046D02*
X047628Y011046D01*
X047521Y010939D01*
X047628Y010832D01*
X047841Y010832D01*
X047948Y010726D01*
X047841Y010619D01*
X047521Y010619D01*
X047305Y010619D02*
X047198Y010726D01*
X047198Y011153D01*
X047091Y011046D02*
X047305Y011046D01*
X046874Y011046D02*
X046874Y010619D01*
X046554Y010619D01*
X046447Y010726D01*
X046447Y011046D01*
X046229Y010939D02*
X046229Y010726D01*
X046123Y010619D01*
X045802Y010619D01*
X045802Y010405D02*
X045802Y011046D01*
X046123Y011046D01*
X046229Y010939D01*
X045586Y011046D02*
X045373Y011046D01*
X045479Y011153D02*
X045479Y010726D01*
X045586Y010619D01*
X045155Y010619D02*
X045155Y011046D01*
X044728Y011046D02*
X044728Y010726D01*
X044835Y010619D01*
X045155Y010619D01*
X044511Y010726D02*
X044511Y011153D01*
X044404Y011259D01*
X044190Y011259D01*
X044084Y011153D01*
X044084Y010726D01*
X044190Y010619D01*
X044404Y010619D01*
X044511Y010726D01*
X045084Y011800D02*
X045298Y012014D01*
X045298Y012441D01*
X045516Y012227D02*
X045622Y012227D01*
X045622Y011800D01*
X045516Y011800D02*
X045729Y011800D01*
X045945Y011800D02*
X045945Y012227D01*
X046265Y012227D01*
X046372Y012120D01*
X046372Y011800D01*
X045622Y012441D02*
X045622Y012547D01*
X044871Y012441D02*
X044871Y012014D01*
X045084Y011800D01*
X046427Y009923D02*
X042727Y009923D01*
X042627Y009823D01*
X042577Y008673D01*
X041107Y008673D02*
X041057Y009823D01*
X040957Y009923D01*
X037257Y009923D01*
X037157Y009823D01*
X037107Y008673D01*
X039804Y005803D02*
X039854Y004653D01*
X039954Y004553D01*
X043654Y004553D01*
X043754Y004653D01*
X043804Y005803D01*
X045280Y005803D02*
X045330Y004653D01*
X045430Y004553D01*
X049130Y004553D01*
X049230Y004653D01*
X049280Y005803D01*
X050809Y005803D02*
X050859Y004653D01*
X050959Y004553D01*
X054659Y004553D01*
X054759Y004653D01*
X054809Y005803D01*
X056349Y005803D02*
X056399Y004653D01*
X056499Y004553D01*
X060199Y004553D01*
X060299Y004653D01*
X060349Y005803D01*
X058783Y004232D02*
X058463Y003912D01*
X058890Y003912D01*
X058783Y004232D02*
X058783Y003591D01*
X058246Y003591D02*
X057819Y003591D01*
X058032Y003591D02*
X058032Y004232D01*
X057819Y004018D01*
X057601Y004125D02*
X057494Y004232D01*
X057174Y004232D01*
X057174Y003591D01*
X057494Y003591D01*
X057601Y003698D01*
X057601Y004125D01*
X056272Y004212D02*
X055845Y004212D01*
X055845Y003892D01*
X056059Y003999D01*
X056165Y003999D01*
X056272Y003892D01*
X056272Y003678D01*
X056165Y003572D01*
X055952Y003572D01*
X055845Y003678D01*
X055628Y003572D02*
X055201Y003572D01*
X055414Y003572D02*
X055414Y004212D01*
X055201Y003999D01*
X054983Y004106D02*
X054983Y003678D01*
X054876Y003572D01*
X054556Y003572D01*
X054556Y004212D01*
X054876Y004212D01*
X054983Y004106D01*
X053457Y004212D02*
X053244Y004106D01*
X053030Y003892D01*
X053350Y003892D01*
X053457Y003785D01*
X053457Y003678D01*
X053350Y003572D01*
X053137Y003572D01*
X053030Y003678D01*
X053030Y003892D01*
X052813Y003572D02*
X052386Y003572D01*
X052599Y003572D02*
X052599Y004212D01*
X052386Y003999D01*
X052168Y004106D02*
X052061Y004212D01*
X051741Y004212D01*
X051741Y003572D01*
X052061Y003572D01*
X052168Y003678D01*
X052168Y004106D01*
X050839Y004145D02*
X050412Y003718D01*
X050412Y003611D01*
X050194Y003611D02*
X049767Y003611D01*
X049981Y003611D02*
X049981Y004252D01*
X049767Y004038D01*
X049550Y004145D02*
X049443Y004252D01*
X049123Y004252D01*
X049123Y003611D01*
X049443Y003611D01*
X049550Y003718D01*
X049550Y004145D01*
X050412Y004252D02*
X050839Y004252D01*
X050839Y004145D01*
X048181Y004117D02*
X048075Y004010D01*
X047861Y004010D01*
X047754Y004117D01*
X047754Y004224D01*
X047861Y004330D01*
X048075Y004330D01*
X048181Y004224D01*
X048181Y004117D01*
X048075Y004010D02*
X048181Y003903D01*
X048181Y003797D01*
X048075Y003690D01*
X047861Y003690D01*
X047754Y003797D01*
X047754Y003903D01*
X047861Y004010D01*
X047537Y003690D02*
X047110Y003690D01*
X047323Y003690D02*
X047323Y004330D01*
X047110Y004117D01*
X046892Y004224D02*
X046786Y004330D01*
X046465Y004330D01*
X046465Y003690D01*
X046786Y003690D01*
X046892Y003797D01*
X046892Y004224D01*
X045386Y004243D02*
X045386Y003816D01*
X045279Y003710D01*
X045066Y003710D01*
X044959Y003816D01*
X045066Y004030D02*
X045386Y004030D01*
X045386Y004243D02*
X045279Y004350D01*
X045066Y004350D01*
X044959Y004243D01*
X044959Y004137D01*
X045066Y004030D01*
X044742Y003710D02*
X044315Y003710D01*
X044528Y003710D02*
X044528Y004350D01*
X044315Y004137D01*
X044097Y004243D02*
X043990Y004350D01*
X043670Y004350D01*
X043670Y003710D01*
X043990Y003710D01*
X044097Y003816D01*
X044097Y004243D01*
X042591Y004224D02*
X042164Y003797D01*
X042271Y003690D01*
X042484Y003690D01*
X042591Y003797D01*
X042591Y004224D01*
X042484Y004330D01*
X042271Y004330D01*
X042164Y004224D01*
X042164Y003797D01*
X041946Y003690D02*
X041519Y003690D01*
X041946Y004117D01*
X041946Y004224D01*
X041840Y004330D01*
X041626Y004330D01*
X041519Y004224D01*
X041302Y004224D02*
X041302Y003797D01*
X041195Y003690D01*
X040875Y003690D01*
X040875Y004330D01*
X041195Y004330D01*
X041302Y004224D01*
X039717Y003729D02*
X039290Y003729D01*
X039503Y003729D02*
X039503Y004370D01*
X039290Y004156D01*
X039072Y004156D02*
X039072Y004263D01*
X038966Y004370D01*
X038752Y004370D01*
X038645Y004263D01*
X038428Y004263D02*
X038321Y004370D01*
X038001Y004370D01*
X038001Y003729D01*
X038321Y003729D01*
X038428Y003836D01*
X038428Y004263D01*
X038645Y003729D02*
X039072Y004156D01*
X039072Y003729D02*
X038645Y003729D01*
X046577Y008673D02*
X046527Y009823D01*
X046427Y009923D01*
X048098Y009823D02*
X048048Y008673D01*
X048098Y009823D02*
X048198Y009923D01*
X051898Y009923D01*
X051998Y009823D01*
X052048Y008673D01*
X053571Y008673D02*
X053621Y009823D01*
X053721Y009923D01*
X057421Y009923D01*
X057521Y009823D01*
X057571Y008673D01*
X060312Y020461D02*
X060953Y020461D01*
X060953Y020889D01*
X060846Y021106D02*
X060953Y021213D01*
X060953Y021426D01*
X060846Y021533D01*
X060632Y021533D01*
X060526Y021426D01*
X060526Y021213D01*
X060632Y021106D01*
X060846Y021106D01*
X060846Y021751D02*
X060953Y021857D01*
X060953Y022178D01*
X061059Y022178D02*
X060526Y022178D01*
X060526Y021857D01*
X060632Y021751D01*
X060846Y021751D01*
X061166Y021964D02*
X061166Y022071D01*
X061059Y022178D01*
X060953Y022395D02*
X060953Y022609D01*
X060953Y022502D02*
X060526Y022502D01*
X060526Y022395D01*
X060312Y022502D02*
X060205Y022502D01*
X060632Y022825D02*
X060846Y022825D01*
X060953Y022931D01*
X060953Y023252D01*
X060526Y023252D02*
X060526Y022931D01*
X060632Y022825D01*
X060419Y024114D02*
X060846Y024114D01*
X060953Y024221D01*
X060953Y024434D01*
X060846Y024541D01*
X060632Y024541D01*
X060632Y024327D01*
X060419Y024114D02*
X060312Y024221D01*
X060312Y024434D01*
X060419Y024541D01*
X060526Y024758D02*
X060526Y025079D01*
X060632Y025185D01*
X060953Y025185D01*
X060846Y025403D02*
X060632Y025403D01*
X060526Y025510D01*
X060526Y025830D01*
X060312Y025830D02*
X060953Y025830D01*
X060953Y025510D01*
X060846Y025403D01*
X060953Y024758D02*
X060526Y024758D01*
X054039Y032056D02*
X053826Y032056D01*
X053719Y032163D01*
X053502Y032056D02*
X053075Y032056D01*
X053288Y032056D02*
X053288Y032696D01*
X053075Y032483D01*
X052857Y032590D02*
X052857Y032163D01*
X052750Y032056D01*
X052430Y032056D01*
X052430Y032696D01*
X052750Y032696D01*
X052857Y032590D01*
X052372Y033153D02*
X048672Y033153D01*
X048572Y033253D01*
X048522Y034403D01*
X047028Y034403D02*
X046978Y033253D01*
X046878Y033153D01*
X043178Y033153D01*
X043078Y033253D01*
X043028Y034403D01*
X041508Y034403D02*
X041458Y033253D01*
X041358Y033153D01*
X037658Y033153D01*
X037558Y033253D01*
X037508Y034403D01*
X036054Y034403D02*
X036004Y033253D01*
X035904Y033153D01*
X032204Y033153D01*
X032104Y033253D01*
X032054Y034403D01*
X031306Y035422D02*
X031413Y035529D01*
X031306Y035636D01*
X031092Y035636D01*
X030986Y035742D01*
X031092Y035849D01*
X031413Y035849D01*
X031306Y035422D02*
X030986Y035422D01*
X030769Y035422D02*
X030663Y035529D01*
X030663Y035956D01*
X030769Y035849D02*
X030556Y035849D01*
X030338Y035849D02*
X030338Y035422D01*
X030018Y035422D01*
X029911Y035529D01*
X029911Y035849D01*
X029694Y035742D02*
X029694Y035529D01*
X029587Y035422D01*
X029267Y035422D01*
X029267Y035209D02*
X029267Y035849D01*
X029587Y035849D01*
X029694Y035742D01*
X029051Y035849D02*
X028837Y035849D01*
X028944Y035956D02*
X028944Y035529D01*
X029051Y035422D01*
X028620Y035422D02*
X028620Y035849D01*
X028620Y035422D02*
X028299Y035422D01*
X028193Y035529D01*
X028193Y035849D01*
X027975Y035956D02*
X027975Y035529D01*
X027868Y035422D01*
X027655Y035422D01*
X027548Y035529D01*
X027548Y035956D01*
X027655Y036063D01*
X027868Y036063D01*
X027975Y035956D01*
X027081Y035742D02*
X027081Y035422D01*
X027081Y035742D02*
X026974Y035849D01*
X026654Y035849D01*
X026654Y035422D01*
X026438Y035422D02*
X026224Y035422D01*
X026331Y035422D02*
X026331Y035849D01*
X026224Y035849D01*
X026331Y036063D02*
X026331Y036169D01*
X026007Y036063D02*
X026007Y035636D01*
X025793Y035422D01*
X025580Y035636D01*
X025580Y036063D01*
X023735Y037303D02*
X023785Y038453D01*
X023885Y038553D01*
X027585Y038553D01*
X027685Y038453D01*
X027735Y037303D01*
X029272Y037303D02*
X029322Y038453D01*
X029422Y038553D01*
X033122Y038553D01*
X033222Y038453D01*
X033272Y037303D01*
X034776Y037303D02*
X034826Y038453D01*
X034926Y038553D01*
X038626Y038553D01*
X038726Y038453D01*
X038776Y037303D01*
X040258Y037303D02*
X040308Y038453D01*
X040408Y038553D01*
X044108Y038553D01*
X044208Y038453D01*
X044258Y037303D01*
X045758Y037303D02*
X045808Y038453D01*
X045908Y038553D01*
X049608Y038553D01*
X049708Y038453D01*
X049758Y037303D01*
X051258Y037303D02*
X051308Y038453D01*
X051408Y038553D01*
X055108Y038553D01*
X055208Y038453D01*
X055258Y037303D01*
X056584Y038001D02*
X057011Y038001D01*
X056797Y038001D02*
X056797Y038641D01*
X056584Y038428D01*
X057228Y038535D02*
X057335Y038641D01*
X057548Y038641D01*
X057655Y038535D01*
X057655Y038428D01*
X057228Y038001D01*
X057655Y038001D01*
X057873Y038321D02*
X058300Y038321D01*
X058517Y038535D02*
X058624Y038641D01*
X058837Y038641D01*
X058944Y038535D01*
X058944Y038428D01*
X058517Y038001D01*
X058944Y038001D01*
X059162Y038108D02*
X059589Y038535D01*
X059589Y038108D01*
X059482Y038001D01*
X059268Y038001D01*
X059162Y038108D01*
X059162Y038535D01*
X059268Y038641D01*
X059482Y038641D01*
X059589Y038535D01*
X058754Y037500D02*
X058754Y036859D01*
X058327Y037500D01*
X058327Y036859D01*
X058111Y036859D02*
X057897Y036859D01*
X058004Y036859D02*
X058004Y037500D01*
X057897Y037500D02*
X058111Y037500D01*
X057680Y037500D02*
X057680Y037073D01*
X057466Y036859D01*
X057253Y037073D01*
X057253Y037500D01*
X052522Y034403D02*
X052472Y033253D01*
X052372Y033153D01*
X051430Y032590D02*
X051323Y032696D01*
X051109Y032696D01*
X051003Y032590D01*
X051430Y032590D02*
X051430Y032483D01*
X051003Y032056D01*
X051430Y032056D01*
X050785Y032056D02*
X050358Y032056D01*
X050571Y032056D02*
X050571Y032696D01*
X050358Y032483D01*
X050140Y032590D02*
X050140Y032163D01*
X050034Y032056D01*
X049713Y032056D01*
X049713Y032696D01*
X050034Y032696D01*
X050140Y032590D01*
X048654Y032115D02*
X048227Y032115D01*
X048440Y032115D02*
X048440Y032756D01*
X048227Y032542D01*
X048009Y032115D02*
X047582Y032115D01*
X047796Y032115D02*
X047796Y032756D01*
X047582Y032542D01*
X047365Y032649D02*
X047258Y032756D01*
X046938Y032756D01*
X046938Y032115D01*
X047258Y032115D01*
X047365Y032222D01*
X047365Y032649D01*
X045898Y032590D02*
X045471Y032163D01*
X045578Y032056D01*
X045791Y032056D01*
X045898Y032163D01*
X045898Y032590D01*
X045791Y032696D01*
X045578Y032696D01*
X045471Y032590D01*
X045471Y032163D01*
X045254Y032056D02*
X044826Y032056D01*
X045040Y032056D02*
X045040Y032696D01*
X044826Y032483D01*
X044609Y032590D02*
X044502Y032696D01*
X044182Y032696D01*
X044182Y032056D01*
X044502Y032056D01*
X044609Y032163D01*
X044609Y032590D01*
X042694Y032629D02*
X042694Y032202D01*
X042588Y032095D01*
X042374Y032095D01*
X042267Y032202D01*
X042050Y032202D02*
X042050Y032629D01*
X041943Y032736D01*
X041623Y032736D01*
X041623Y032095D01*
X041943Y032095D01*
X042050Y032202D01*
X042267Y032522D02*
X042374Y032416D01*
X042694Y032416D01*
X042694Y032629D02*
X042588Y032736D01*
X042374Y032736D01*
X042267Y032629D01*
X042267Y032522D01*
X040372Y032542D02*
X040265Y032435D01*
X040051Y032435D01*
X039945Y032542D01*
X039945Y032649D01*
X040051Y032756D01*
X040265Y032756D01*
X040372Y032649D01*
X040372Y032542D01*
X040265Y032435D02*
X040372Y032329D01*
X040372Y032222D01*
X040265Y032115D01*
X040051Y032115D01*
X039945Y032222D01*
X039945Y032329D01*
X040051Y032435D01*
X039727Y032222D02*
X039727Y032649D01*
X039620Y032756D01*
X039300Y032756D01*
X039300Y032115D01*
X039620Y032115D01*
X039727Y032222D01*
X037753Y032668D02*
X037326Y032241D01*
X037326Y032135D01*
X037109Y032241D02*
X037109Y032668D01*
X037002Y032775D01*
X036682Y032775D01*
X036682Y032135D01*
X037002Y032135D01*
X037109Y032241D01*
X037326Y032775D02*
X037753Y032775D01*
X037753Y032668D01*
X034505Y032815D02*
X034292Y032708D01*
X034078Y032494D01*
X034399Y032494D01*
X034505Y032388D01*
X034505Y032281D01*
X034399Y032174D01*
X034185Y032174D01*
X034078Y032281D01*
X034078Y032494D01*
X033861Y032281D02*
X033861Y032708D01*
X033754Y032815D01*
X033434Y032815D01*
X033434Y032174D01*
X033754Y032174D01*
X033861Y032281D01*
X032143Y032281D02*
X032036Y032174D01*
X031823Y032174D01*
X031716Y032281D01*
X031716Y032494D02*
X031930Y032601D01*
X032036Y032601D01*
X032143Y032494D01*
X032143Y032281D01*
X031716Y032494D02*
X031716Y032815D01*
X032143Y032815D01*
X031499Y032708D02*
X031499Y032281D01*
X031392Y032174D01*
X031072Y032174D01*
X031072Y032815D01*
X031392Y032815D01*
X031499Y032708D01*
X030480Y033253D02*
X030530Y034403D01*
X030480Y033253D02*
X030380Y033153D01*
X026680Y033153D01*
X026580Y033253D01*
X026530Y034403D01*
X025028Y034403D02*
X024978Y033253D01*
X024878Y033153D01*
X021178Y033153D01*
X021078Y033253D01*
X021028Y034403D01*
X019508Y034403D02*
X019458Y033253D01*
X019358Y033153D01*
X015658Y033153D01*
X015558Y033253D01*
X015508Y034403D01*
X014008Y034403D02*
X013958Y033253D01*
X013858Y033153D01*
X010158Y033153D01*
X010058Y033253D01*
X010008Y034403D01*
X010150Y032775D02*
X009936Y032668D01*
X009723Y032455D01*
X010043Y032455D01*
X010150Y032348D01*
X010150Y032241D01*
X010043Y032135D01*
X009830Y032135D01*
X009723Y032241D01*
X009723Y032455D01*
X009505Y032562D02*
X009505Y032668D01*
X009399Y032775D01*
X009185Y032775D01*
X009078Y032668D01*
X008861Y032668D02*
X008754Y032775D01*
X008434Y032775D01*
X008434Y032135D01*
X008754Y032135D01*
X008861Y032241D01*
X008861Y032668D01*
X009078Y032135D02*
X009505Y032562D01*
X009505Y032135D02*
X009078Y032135D01*
X010895Y032115D02*
X011215Y032115D01*
X011322Y032222D01*
X011322Y032649D01*
X011215Y032756D01*
X010895Y032756D01*
X010895Y032115D01*
X011539Y032115D02*
X011966Y032542D01*
X011966Y032649D01*
X011859Y032756D01*
X011646Y032756D01*
X011539Y032649D01*
X011539Y032115D02*
X011966Y032115D01*
X012184Y032222D02*
X012290Y032115D01*
X012504Y032115D01*
X012611Y032222D01*
X012611Y032435D01*
X012504Y032542D01*
X012397Y032542D01*
X012184Y032435D01*
X012184Y032756D01*
X012611Y032756D01*
X013946Y032736D02*
X013946Y032095D01*
X014266Y032095D01*
X014373Y032202D01*
X014373Y032629D01*
X014266Y032736D01*
X013946Y032736D01*
X014590Y032629D02*
X014697Y032736D01*
X014911Y032736D01*
X015017Y032629D01*
X015017Y032522D01*
X014590Y032095D01*
X015017Y032095D01*
X015235Y032416D02*
X015555Y032736D01*
X015555Y032095D01*
X015662Y032416D02*
X015235Y032416D01*
X016721Y032716D02*
X016721Y032076D01*
X017042Y032076D01*
X017148Y032182D01*
X017148Y032609D01*
X017042Y032716D01*
X016721Y032716D01*
X017366Y032609D02*
X017473Y032716D01*
X017686Y032716D01*
X017793Y032609D01*
X017793Y032503D01*
X017366Y032076D01*
X017793Y032076D01*
X018010Y032182D02*
X018117Y032076D01*
X018331Y032076D01*
X018437Y032182D01*
X018437Y032289D01*
X018331Y032396D01*
X018224Y032396D01*
X018331Y032396D02*
X018437Y032503D01*
X018437Y032609D01*
X018331Y032716D01*
X018117Y032716D01*
X018010Y032609D01*
X019576Y032756D02*
X019576Y032115D01*
X019896Y032115D01*
X020003Y032222D01*
X020003Y032649D01*
X019896Y032756D01*
X019576Y032756D01*
X020220Y032649D02*
X020327Y032756D01*
X020540Y032756D01*
X020647Y032649D01*
X020647Y032542D01*
X020220Y032115D01*
X020647Y032115D01*
X020865Y032115D02*
X021292Y032542D01*
X021292Y032649D01*
X021185Y032756D01*
X020971Y032756D01*
X020865Y032649D01*
X020865Y032115D02*
X021292Y032115D01*
X022469Y032135D02*
X022790Y032135D01*
X022896Y032241D01*
X022896Y032668D01*
X022790Y032775D01*
X022469Y032775D01*
X022469Y032135D01*
X023114Y032135D02*
X023541Y032562D01*
X023541Y032668D01*
X023434Y032775D01*
X023221Y032775D01*
X023114Y032668D01*
X023114Y032135D02*
X023541Y032135D01*
X025481Y032174D02*
X025801Y032174D01*
X025908Y032281D01*
X025908Y032708D01*
X025801Y032815D01*
X025481Y032815D01*
X025481Y032174D01*
X026126Y032281D02*
X026232Y032174D01*
X026446Y032174D01*
X026553Y032281D01*
X026553Y032388D01*
X026446Y032494D01*
X026339Y032494D01*
X026446Y032494D02*
X026553Y032601D01*
X026553Y032708D01*
X026446Y032815D01*
X026232Y032815D01*
X026126Y032708D01*
X028296Y032834D02*
X028296Y032194D01*
X028616Y032194D01*
X028723Y032300D01*
X028723Y032728D01*
X028616Y032834D01*
X028296Y032834D01*
X028941Y032514D02*
X029368Y032514D01*
X029261Y032834D02*
X028941Y032514D01*
X029261Y032194D02*
X029261Y032834D01*
X022258Y037303D02*
X022208Y038453D01*
X022108Y038553D01*
X018408Y038553D01*
X018308Y038453D01*
X018258Y037303D01*
X016758Y037303D02*
X016708Y038453D01*
X016608Y038553D01*
X012908Y038553D01*
X012808Y038453D01*
X012758Y037303D01*
X011258Y037303D02*
X011208Y038453D01*
X011108Y038553D01*
X007408Y038553D01*
X007308Y038453D01*
X007258Y037303D01*
X006036Y037497D02*
X005929Y037391D01*
X005716Y037391D01*
X005609Y037497D01*
X005609Y037604D01*
X005716Y037711D01*
X005929Y037711D01*
X006036Y037604D01*
X006036Y037497D01*
X005929Y037711D02*
X006036Y037818D01*
X006036Y037924D01*
X005929Y038031D01*
X005716Y038031D01*
X005609Y037924D01*
X005609Y037818D01*
X005716Y037711D01*
X005391Y037818D02*
X005391Y037924D01*
X005285Y038031D01*
X005071Y038031D01*
X004964Y037924D01*
X004747Y037924D02*
X004640Y038031D01*
X004320Y038031D01*
X004320Y037391D01*
X004640Y037391D01*
X004747Y037497D01*
X004747Y037924D01*
X004964Y037391D02*
X005391Y037818D01*
X005391Y037391D02*
X004964Y037391D01*
X005130Y036771D02*
X005023Y036665D01*
X005130Y036771D02*
X005344Y036771D01*
X005450Y036665D01*
X005450Y036558D01*
X005023Y036131D01*
X005450Y036131D01*
X005668Y036238D02*
X005775Y036131D01*
X005988Y036131D01*
X006095Y036238D01*
X006095Y036665D01*
X005988Y036771D01*
X005775Y036771D01*
X005668Y036665D01*
X005668Y036558D01*
X005775Y036451D01*
X006095Y036451D01*
X004806Y036238D02*
X004806Y036665D01*
X004699Y036771D01*
X004379Y036771D01*
X004379Y036131D01*
X004699Y036131D01*
X004806Y036238D01*
X004640Y035275D02*
X004320Y035275D01*
X004320Y034635D01*
X004640Y034635D01*
X004747Y034741D01*
X004747Y035169D01*
X004640Y035275D01*
X004964Y035169D02*
X005071Y035275D01*
X005285Y035275D01*
X005391Y035169D01*
X005391Y035062D01*
X005285Y034955D01*
X005391Y034848D01*
X005391Y034741D01*
X005285Y034635D01*
X005071Y034635D01*
X004964Y034741D01*
X005178Y034955D02*
X005285Y034955D01*
X005609Y034741D02*
X005609Y035169D01*
X005716Y035275D01*
X005929Y035275D01*
X006036Y035169D01*
X005609Y034741D01*
X005716Y034635D01*
X005929Y034635D01*
X006036Y034741D01*
X006036Y035169D01*
X005822Y034094D02*
X005822Y033454D01*
X005609Y033454D02*
X006036Y033454D01*
X005609Y033881D02*
X005822Y034094D01*
X005391Y033987D02*
X005391Y033881D01*
X005285Y033774D01*
X005391Y033667D01*
X005391Y033560D01*
X005285Y033454D01*
X005071Y033454D01*
X004964Y033560D01*
X004747Y033560D02*
X004747Y033987D01*
X004640Y034094D01*
X004320Y034094D01*
X004320Y033454D01*
X004640Y033454D01*
X004747Y033560D01*
X004964Y033987D02*
X005071Y034094D01*
X005285Y034094D01*
X005391Y033987D01*
X005285Y033774D02*
X005178Y033774D01*
X005071Y032126D02*
X005285Y032126D01*
X005391Y032019D01*
X005391Y031912D01*
X005285Y031805D01*
X005391Y031699D01*
X005391Y031592D01*
X005285Y031485D01*
X005071Y031485D01*
X004964Y031592D01*
X004747Y031592D02*
X004747Y032019D01*
X004640Y032126D01*
X004320Y032126D01*
X004320Y031485D01*
X004640Y031485D01*
X004747Y031592D01*
X004964Y032019D02*
X005071Y032126D01*
X005178Y031805D02*
X005285Y031805D01*
X005609Y032019D02*
X005716Y032126D01*
X005929Y032126D01*
X006036Y032019D01*
X006036Y031912D01*
X005609Y031485D01*
X006036Y031485D01*
X005929Y030945D02*
X005716Y030945D01*
X005609Y030838D01*
X005391Y030838D02*
X005391Y030731D01*
X005285Y030624D01*
X005391Y030518D01*
X005391Y030411D01*
X005285Y030304D01*
X005071Y030304D01*
X004964Y030411D01*
X004747Y030411D02*
X004747Y030838D01*
X004640Y030945D01*
X004320Y030945D01*
X004320Y030304D01*
X004640Y030304D01*
X004747Y030411D01*
X004964Y030838D02*
X005071Y030945D01*
X005285Y030945D01*
X005391Y030838D01*
X005285Y030624D02*
X005178Y030624D01*
X005609Y030411D02*
X005716Y030304D01*
X005929Y030304D01*
X006036Y030411D01*
X006036Y030518D01*
X005929Y030624D01*
X005822Y030624D01*
X005929Y030624D02*
X006036Y030731D01*
X006036Y030838D01*
X005929Y030945D01*
X005929Y029370D02*
X005609Y029049D01*
X006036Y029049D01*
X005929Y028729D02*
X005929Y029370D01*
X005391Y029263D02*
X005391Y029156D01*
X005285Y029049D01*
X005391Y028943D01*
X005391Y028836D01*
X005285Y028729D01*
X005071Y028729D01*
X004964Y028836D01*
X004747Y028836D02*
X004747Y029263D01*
X004640Y029370D01*
X004320Y029370D01*
X004320Y028729D01*
X004640Y028729D01*
X004747Y028836D01*
X004964Y029263D02*
X005071Y029370D01*
X005285Y029370D01*
X005391Y029263D01*
X005285Y029049D02*
X005178Y029049D01*
X005071Y028189D02*
X005285Y028189D01*
X005391Y028082D01*
X005391Y027975D01*
X005285Y027868D01*
X005391Y027762D01*
X005391Y027655D01*
X005285Y027548D01*
X005071Y027548D01*
X004964Y027655D01*
X004747Y027655D02*
X004747Y028082D01*
X004640Y028189D01*
X004320Y028189D01*
X004320Y027548D01*
X004640Y027548D01*
X004747Y027655D01*
X004964Y028082D02*
X005071Y028189D01*
X005178Y027868D02*
X005285Y027868D01*
X005609Y027868D02*
X005822Y027975D01*
X005929Y027975D01*
X006036Y027868D01*
X006036Y027655D01*
X005929Y027548D01*
X005716Y027548D01*
X005609Y027655D01*
X005609Y027868D02*
X005609Y028189D01*
X006036Y028189D01*
X006036Y026614D02*
X005822Y026507D01*
X005609Y026294D01*
X005929Y026294D01*
X006036Y026187D01*
X006036Y026080D01*
X005929Y025973D01*
X005716Y025973D01*
X005609Y026080D01*
X005609Y026294D01*
X005391Y026400D02*
X005285Y026294D01*
X005391Y026187D01*
X005391Y026080D01*
X005285Y025973D01*
X005071Y025973D01*
X004964Y026080D01*
X004747Y026080D02*
X004747Y026507D01*
X004640Y026614D01*
X004320Y026614D01*
X004320Y025973D01*
X004640Y025973D01*
X004747Y026080D01*
X004964Y026507D02*
X005071Y026614D01*
X005285Y026614D01*
X005391Y026507D01*
X005391Y026400D01*
X005285Y026294D02*
X005178Y026294D01*
X005071Y025433D02*
X005285Y025433D01*
X005391Y025326D01*
X005391Y025219D01*
X005285Y025112D01*
X005391Y025006D01*
X005391Y024899D01*
X005285Y024792D01*
X005071Y024792D01*
X004964Y024899D01*
X004747Y024899D02*
X004747Y025326D01*
X004640Y025433D01*
X004320Y025433D01*
X004320Y024792D01*
X004640Y024792D01*
X004747Y024899D01*
X004964Y025326D02*
X005071Y025433D01*
X005178Y025112D02*
X005285Y025112D01*
X005609Y024899D02*
X005609Y024792D01*
X005609Y024899D02*
X006036Y025326D01*
X006036Y025433D01*
X005609Y025433D01*
X005716Y023622D02*
X005929Y023622D01*
X006036Y023515D01*
X006036Y023408D01*
X005929Y023301D01*
X005716Y023301D01*
X005609Y023408D01*
X005609Y023515D01*
X005716Y023622D01*
X005716Y023301D02*
X005609Y023195D01*
X005609Y023088D01*
X005716Y022981D01*
X005929Y022981D01*
X006036Y023088D01*
X006036Y023195D01*
X005929Y023301D01*
X005391Y023195D02*
X005391Y023088D01*
X005285Y022981D01*
X005071Y022981D01*
X004964Y023088D01*
X004747Y023088D02*
X004747Y023515D01*
X004640Y023622D01*
X004320Y023622D01*
X004320Y022981D01*
X004640Y022981D01*
X004747Y023088D01*
X004964Y023515D02*
X005071Y023622D01*
X005285Y023622D01*
X005391Y023515D01*
X005391Y023408D01*
X005285Y023301D01*
X005391Y023195D01*
X005285Y023301D02*
X005178Y023301D01*
X005071Y022303D02*
X005285Y022303D01*
X005391Y022196D01*
X005391Y022089D01*
X005285Y021983D01*
X005391Y021876D01*
X005391Y021769D01*
X005285Y021662D01*
X005071Y021662D01*
X004964Y021769D01*
X004747Y021769D02*
X004747Y022196D01*
X004640Y022303D01*
X004320Y022303D01*
X004320Y021662D01*
X004640Y021662D01*
X004747Y021769D01*
X004964Y022196D02*
X005071Y022303D01*
X005178Y021983D02*
X005285Y021983D01*
X005609Y022089D02*
X005716Y021983D01*
X006036Y021983D01*
X006036Y022196D02*
X005929Y022303D01*
X005716Y022303D01*
X005609Y022196D01*
X005609Y022089D01*
X005609Y021769D02*
X005716Y021662D01*
X005929Y021662D01*
X006036Y021769D01*
X006036Y022196D01*
X006589Y021499D02*
X006589Y021178D01*
X006695Y021072D01*
X006802Y021178D01*
X006802Y021392D01*
X006909Y021499D01*
X007016Y021392D01*
X007016Y021072D01*
X006589Y020855D02*
X006589Y020748D01*
X006802Y020535D01*
X006589Y020535D02*
X007016Y020535D01*
X006909Y020317D02*
X006695Y020317D01*
X006589Y020210D01*
X006589Y019997D01*
X006695Y019890D01*
X006909Y019890D01*
X007016Y019997D01*
X007016Y020210D01*
X006909Y020317D01*
X006036Y020234D02*
X006036Y020661D01*
X005609Y020234D01*
X005716Y020127D01*
X005929Y020127D01*
X006036Y020234D01*
X005822Y019980D02*
X005822Y019339D01*
X005609Y019339D02*
X006036Y019339D01*
X006589Y019352D02*
X006695Y019245D01*
X006802Y019352D01*
X006802Y019566D01*
X006909Y019672D01*
X007016Y019566D01*
X007016Y019245D01*
X007016Y019028D02*
X006695Y019028D01*
X006589Y018921D01*
X006589Y018601D01*
X007016Y018601D01*
X006802Y018383D02*
X006802Y017956D01*
X006695Y017956D02*
X006589Y018063D01*
X006589Y018277D01*
X006695Y018383D01*
X006802Y018383D01*
X007016Y018277D02*
X007016Y018063D01*
X006909Y017956D01*
X006695Y017956D01*
X006802Y017739D02*
X006909Y017739D01*
X007016Y017632D01*
X007016Y017419D01*
X006909Y017312D01*
X006695Y017419D02*
X006695Y017632D01*
X006802Y017739D01*
X006482Y017739D02*
X006375Y017632D01*
X006375Y017419D01*
X006482Y017312D01*
X006589Y017312D01*
X006695Y017419D01*
X006036Y017469D02*
X005609Y017469D01*
X006036Y017896D01*
X006036Y018003D01*
X005929Y018110D01*
X005716Y018110D01*
X005609Y018003D01*
X005391Y017790D02*
X004964Y017790D01*
X005285Y018110D01*
X005285Y017469D01*
X005285Y017165D02*
X004964Y016845D01*
X005391Y016845D01*
X005609Y017058D02*
X005716Y017165D01*
X005929Y017165D01*
X006036Y017058D01*
X006036Y016951D01*
X005929Y016845D01*
X006036Y016738D01*
X006036Y016631D01*
X005929Y016524D01*
X005716Y016524D01*
X005609Y016631D01*
X005822Y016845D02*
X005929Y016845D01*
X005285Y016524D02*
X005285Y017165D01*
X004747Y017058D02*
X004640Y017165D01*
X004320Y017165D01*
X004320Y016524D01*
X004640Y016524D01*
X004747Y016631D01*
X004747Y017058D01*
X004640Y017469D02*
X004320Y017469D01*
X004320Y018110D01*
X004640Y018110D01*
X004747Y018003D01*
X004747Y017576D01*
X004640Y017469D01*
X004640Y019339D02*
X004320Y019339D01*
X004320Y019980D01*
X004640Y019980D01*
X004747Y019873D01*
X004747Y019446D01*
X004640Y019339D01*
X004964Y019660D02*
X005391Y019660D01*
X005609Y019766D02*
X005822Y019980D01*
X005609Y020234D02*
X005609Y020661D01*
X005716Y020767D01*
X005929Y020767D01*
X006036Y020661D01*
X005391Y020447D02*
X004964Y020447D01*
X005285Y020767D01*
X005285Y020127D01*
X005285Y019980D02*
X004964Y019660D01*
X005285Y019339D02*
X005285Y019980D01*
X004747Y020234D02*
X004747Y020661D01*
X004640Y020767D01*
X004320Y020767D01*
X004320Y020127D01*
X004640Y020127D01*
X004747Y020234D01*
X006589Y019672D02*
X006589Y019352D01*
X005929Y015196D02*
X005609Y014876D01*
X006036Y014876D01*
X005929Y014556D02*
X005929Y015196D01*
X005391Y014876D02*
X004964Y014876D01*
X005285Y015196D01*
X005285Y014556D01*
X004747Y014663D02*
X004747Y015090D01*
X004640Y015196D01*
X004320Y015196D01*
X004320Y014556D01*
X004640Y014556D01*
X004747Y014663D01*
X004640Y014015D02*
X004320Y014015D01*
X004320Y013375D01*
X004640Y013375D01*
X004747Y013482D01*
X004747Y013909D01*
X004640Y014015D01*
X004964Y013695D02*
X005391Y013695D01*
X005609Y013695D02*
X005822Y013802D01*
X005929Y013802D01*
X006036Y013695D01*
X006036Y013482D01*
X005929Y013375D01*
X005716Y013375D01*
X005609Y013482D01*
X005609Y013695D02*
X005609Y014015D01*
X006036Y014015D01*
X005285Y014015D02*
X005285Y013375D01*
X004964Y013695D02*
X005285Y014015D01*
X005285Y012441D02*
X004964Y012120D01*
X005391Y012120D01*
X005609Y012120D02*
X005929Y012120D01*
X006036Y012014D01*
X006036Y011907D01*
X005929Y011800D01*
X005716Y011800D01*
X005609Y011907D01*
X005609Y012120D01*
X005822Y012334D01*
X006036Y012441D01*
X005285Y012441D02*
X005285Y011800D01*
X005285Y011259D02*
X004964Y010939D01*
X005391Y010939D01*
X005609Y010726D02*
X005609Y010619D01*
X005609Y010726D02*
X006036Y011153D01*
X006036Y011259D01*
X005609Y011259D01*
X005285Y011259D02*
X005285Y010619D01*
X004747Y010726D02*
X004747Y011153D01*
X004640Y011259D01*
X004320Y011259D01*
X004320Y010619D01*
X004640Y010619D01*
X004747Y010726D01*
X004640Y011800D02*
X004320Y011800D01*
X004320Y012441D01*
X004640Y012441D01*
X004747Y012334D01*
X004747Y011907D01*
X004640Y011800D01*
X004640Y009291D02*
X004320Y009291D01*
X004320Y008650D01*
X004640Y008650D01*
X004747Y008757D01*
X004747Y009184D01*
X004640Y009291D01*
X004964Y008971D02*
X005391Y008971D01*
X005609Y009077D02*
X005716Y008971D01*
X005929Y008971D01*
X006036Y008864D01*
X006036Y008757D01*
X005929Y008650D01*
X005716Y008650D01*
X005609Y008757D01*
X005609Y008864D01*
X005716Y008971D01*
X005609Y009077D02*
X005609Y009184D01*
X005716Y009291D01*
X005929Y009291D01*
X006036Y009184D01*
X006036Y009077D01*
X005929Y008971D01*
X005929Y008307D02*
X005716Y008307D01*
X005609Y008200D01*
X005609Y008093D01*
X005716Y007986D01*
X006036Y007986D01*
X006036Y007773D02*
X006036Y008200D01*
X005929Y008307D01*
X006036Y007773D02*
X005929Y007666D01*
X005716Y007666D01*
X005609Y007773D01*
X005391Y007986D02*
X004964Y007986D01*
X005285Y008307D01*
X005285Y007666D01*
X004747Y007773D02*
X004747Y008200D01*
X004640Y008307D01*
X004320Y008307D01*
X004320Y007666D01*
X004640Y007666D01*
X004747Y007773D01*
X005285Y008650D02*
X005285Y009291D01*
X004964Y008971D01*
X004964Y006535D02*
X004964Y006215D01*
X005178Y006322D01*
X005285Y006322D01*
X005391Y006215D01*
X005391Y006001D01*
X005285Y005895D01*
X005071Y005895D01*
X004964Y006001D01*
X004747Y006001D02*
X004747Y006428D01*
X004640Y006535D01*
X004320Y006535D01*
X004320Y005895D01*
X004640Y005895D01*
X004747Y006001D01*
X004964Y006535D02*
X005391Y006535D01*
X005609Y006428D02*
X005716Y006535D01*
X005929Y006535D01*
X006036Y006428D01*
X005609Y006001D01*
X005716Y005895D01*
X005929Y005895D01*
X006036Y006001D01*
X006036Y006428D01*
X005609Y006428D02*
X005609Y006001D01*
X005822Y005354D02*
X005822Y004713D01*
X005609Y004713D02*
X006036Y004713D01*
X005609Y005140D02*
X005822Y005354D01*
X005391Y005354D02*
X004964Y005354D01*
X004964Y005034D01*
X005178Y005140D01*
X005285Y005140D01*
X005391Y005034D01*
X005391Y004820D01*
X005285Y004713D01*
X005071Y004713D01*
X004964Y004820D01*
X004747Y004820D02*
X004747Y005247D01*
X004640Y005354D01*
X004320Y005354D01*
X004320Y004713D01*
X004640Y004713D01*
X004747Y004820D01*
X004640Y003779D02*
X004320Y003779D01*
X004320Y003139D01*
X004640Y003139D01*
X004747Y003245D01*
X004747Y003672D01*
X004640Y003779D01*
X004964Y003779D02*
X004964Y003459D01*
X005178Y003566D01*
X005285Y003566D01*
X005391Y003459D01*
X005391Y003245D01*
X005285Y003139D01*
X005071Y003139D01*
X004964Y003245D01*
X004964Y003779D02*
X005391Y003779D01*
X005609Y003672D02*
X005716Y003779D01*
X005929Y003779D01*
X006036Y003672D01*
X006036Y003566D01*
X005609Y003139D01*
X006036Y003139D01*
X005929Y002598D02*
X005716Y002598D01*
X005609Y002491D01*
X005391Y002598D02*
X004964Y002598D01*
X004964Y002278D01*
X005178Y002385D01*
X005285Y002385D01*
X005391Y002278D01*
X005391Y002064D01*
X005285Y001958D01*
X005071Y001958D01*
X004964Y002064D01*
X004747Y002064D02*
X004747Y002491D01*
X004640Y002598D01*
X004320Y002598D01*
X004320Y001958D01*
X004640Y001958D01*
X004747Y002064D01*
X005609Y002064D02*
X005716Y001958D01*
X005929Y001958D01*
X006036Y002064D01*
X006036Y002171D01*
X005929Y002278D01*
X005822Y002278D01*
X005929Y002278D02*
X006036Y002385D01*
X006036Y002491D01*
X005929Y002598D01*
X017706Y002671D02*
X018133Y002671D01*
X018350Y002671D02*
X018457Y002778D01*
X018670Y002778D01*
X018777Y002671D01*
X018777Y002565D01*
X018350Y002565D01*
X018350Y002671D02*
X018350Y002458D01*
X018457Y002351D01*
X018670Y002351D01*
X018995Y002458D02*
X019101Y002565D01*
X019422Y002565D01*
X019422Y002671D02*
X019422Y002351D01*
X019101Y002351D01*
X018995Y002458D01*
X019101Y002778D02*
X019315Y002778D01*
X019422Y002671D01*
X019639Y002778D02*
X019853Y002778D01*
X019746Y002885D02*
X019746Y002458D01*
X019853Y002351D01*
X020069Y002458D02*
X020176Y002351D01*
X020389Y002351D01*
X020496Y002458D01*
X020496Y002565D01*
X020389Y002671D01*
X020176Y002671D01*
X020069Y002778D01*
X020069Y002885D01*
X020176Y002992D01*
X020389Y002992D01*
X020496Y002885D01*
X020713Y002778D02*
X020713Y002458D01*
X020820Y002351D01*
X021140Y002351D01*
X021140Y002245D02*
X021034Y002138D01*
X020927Y002138D01*
X021140Y002245D02*
X021140Y002778D01*
X021358Y002778D02*
X021678Y002778D01*
X021785Y002671D01*
X021785Y002351D01*
X022002Y002458D02*
X022109Y002351D01*
X022429Y002351D01*
X022429Y002778D02*
X022109Y002778D01*
X022002Y002671D01*
X022002Y002458D01*
X021358Y002351D02*
X021358Y002778D01*
X021573Y003532D02*
X021573Y004173D01*
X021893Y004173D01*
X022000Y004066D01*
X022000Y003853D01*
X021893Y003746D01*
X021573Y003746D01*
X021786Y003746D02*
X022000Y003532D01*
X022217Y003639D02*
X022324Y003532D01*
X022538Y003532D01*
X022644Y003639D01*
X022644Y003853D01*
X022538Y003959D01*
X022324Y003959D01*
X022217Y003853D01*
X022217Y003639D01*
X022862Y003532D02*
X023182Y003532D01*
X023289Y003639D01*
X023182Y003746D01*
X022969Y003746D01*
X022862Y003853D01*
X022969Y003959D01*
X023289Y003959D01*
X023506Y003853D02*
X023613Y003959D01*
X023827Y003959D01*
X023933Y003853D01*
X023933Y003746D01*
X023506Y003746D01*
X023506Y003639D02*
X023506Y003853D01*
X023506Y003639D02*
X023613Y003532D01*
X023827Y003532D01*
X024151Y003532D02*
X024151Y003959D01*
X024471Y003959D01*
X024578Y003853D01*
X024578Y003532D01*
X024902Y003639D02*
X025009Y003532D01*
X024902Y003639D02*
X024902Y004066D01*
X024795Y003959D02*
X025009Y003959D01*
X025225Y003853D02*
X025332Y003959D01*
X025545Y003959D01*
X025652Y003853D01*
X025652Y003532D01*
X025870Y003639D02*
X025976Y003746D01*
X026297Y003746D01*
X026297Y003853D02*
X026297Y003532D01*
X025976Y003532D01*
X025870Y003639D01*
X025976Y003959D02*
X026190Y003959D01*
X026297Y003853D01*
X026514Y004173D02*
X026621Y004173D01*
X026621Y003532D01*
X026514Y003532D02*
X026728Y003532D01*
X025652Y002778D02*
X025332Y002778D01*
X025225Y002671D01*
X025332Y002565D01*
X025545Y002565D01*
X025652Y002458D01*
X025545Y002351D01*
X025225Y002351D01*
X025008Y002458D02*
X025008Y002671D01*
X024901Y002778D01*
X024581Y002778D01*
X024581Y002992D02*
X024581Y002351D01*
X024901Y002351D01*
X025008Y002458D01*
X024363Y002351D02*
X024363Y002671D01*
X024256Y002778D01*
X024043Y002778D01*
X024043Y002565D02*
X024363Y002565D01*
X024363Y002351D02*
X024043Y002351D01*
X023936Y002458D01*
X024043Y002565D01*
X023719Y002351D02*
X023291Y002351D01*
X023291Y002992D01*
X025225Y003532D02*
X025225Y004173D01*
X024363Y004607D02*
X024256Y004500D01*
X024150Y004500D01*
X024363Y004607D02*
X024363Y005140D01*
X024363Y004713D02*
X024043Y004713D01*
X023936Y004820D01*
X023936Y005140D01*
X023719Y005140D02*
X023612Y005034D01*
X023291Y005034D01*
X023291Y005354D02*
X023291Y004713D01*
X023612Y004713D01*
X023719Y004820D01*
X023719Y004927D01*
X023612Y005034D01*
X023719Y005140D02*
X023719Y005247D01*
X023612Y005354D01*
X023291Y005354D01*
X022429Y005354D02*
X022429Y004713D01*
X022109Y004713D01*
X022002Y004820D01*
X022002Y005034D01*
X022109Y005140D01*
X022429Y005140D01*
X021785Y005034D02*
X021785Y004927D01*
X021358Y004927D01*
X021358Y005034D02*
X021465Y005140D01*
X021678Y005140D01*
X021785Y005034D01*
X021678Y004713D02*
X021465Y004713D01*
X021358Y004820D01*
X021358Y005034D01*
X021140Y005034D02*
X021140Y004713D01*
X021140Y005034D02*
X021034Y005140D01*
X020713Y005140D01*
X020713Y004713D01*
X020496Y004713D02*
X020176Y004713D01*
X020069Y004820D01*
X020069Y005034D01*
X020176Y005140D01*
X020496Y005140D01*
X020496Y004607D01*
X020389Y004500D01*
X020282Y004500D01*
X020284Y004173D02*
X020284Y003532D01*
X020604Y003532D01*
X020711Y003639D01*
X020711Y003853D01*
X020604Y003959D01*
X020284Y003959D01*
X020066Y003853D02*
X019959Y003959D01*
X019746Y003959D01*
X019639Y003853D01*
X019639Y003639D01*
X019746Y003532D01*
X019959Y003532D01*
X020066Y003639D01*
X020066Y003853D01*
X019422Y003959D02*
X019101Y003959D01*
X018995Y003853D01*
X018995Y003639D01*
X019101Y003532D01*
X019422Y003532D01*
X018777Y003532D02*
X018777Y003853D01*
X018670Y003959D01*
X018457Y003959D01*
X018457Y003746D02*
X018350Y003639D01*
X018457Y003532D01*
X018777Y003532D01*
X018777Y003746D02*
X018457Y003746D01*
X018026Y003639D02*
X018026Y004173D01*
X017919Y004173D02*
X018133Y004173D01*
X018026Y003639D02*
X017919Y003532D01*
X017812Y003532D01*
X017706Y003639D01*
X017706Y002992D02*
X017706Y002351D01*
X018133Y002351D02*
X018133Y002992D01*
X018026Y004713D02*
X017706Y004713D01*
X017706Y005354D01*
X018026Y005354D01*
X018133Y005247D01*
X018133Y004820D01*
X018026Y004713D01*
X018350Y004820D02*
X018350Y005034D01*
X018457Y005140D01*
X018670Y005140D01*
X018777Y005034D01*
X018777Y004927D01*
X018350Y004927D01*
X018350Y004820D02*
X018457Y004713D01*
X018670Y004713D01*
X018995Y004713D02*
X019315Y004713D01*
X019422Y004820D01*
X019315Y004927D01*
X019101Y004927D01*
X018995Y005034D01*
X019101Y005140D01*
X019422Y005140D01*
X019639Y005140D02*
X019746Y005140D01*
X019746Y004713D01*
X019639Y004713D02*
X019853Y004713D01*
X019746Y005354D02*
X019746Y005461D01*
X020284Y006288D02*
X020390Y006288D01*
X020390Y006395D01*
X020284Y006395D01*
X020284Y006288D01*
X020606Y006395D02*
X020606Y006822D01*
X020713Y006929D01*
X020926Y006929D01*
X021033Y006822D01*
X020606Y006395D01*
X020713Y006288D01*
X020926Y006288D01*
X021033Y006395D01*
X021033Y006822D01*
X021250Y006715D02*
X021464Y006929D01*
X021464Y006288D01*
X021677Y006288D02*
X021250Y006288D01*
X021679Y007469D02*
X021573Y007576D01*
X021679Y007469D02*
X021893Y007469D01*
X022000Y007576D01*
X022000Y007683D01*
X021893Y007790D01*
X021679Y007790D01*
X021573Y007896D01*
X021573Y008003D01*
X021679Y008110D01*
X021893Y008110D01*
X022000Y008003D01*
X022217Y008110D02*
X022217Y007469D01*
X022217Y007790D02*
X022324Y007896D01*
X022538Y007896D01*
X022644Y007790D01*
X022644Y007469D01*
X022862Y007469D02*
X023075Y007469D01*
X022969Y007469D02*
X022969Y007896D01*
X022862Y007896D01*
X022969Y008110D02*
X022969Y008217D01*
X023291Y007790D02*
X023398Y007896D01*
X023612Y007896D01*
X023719Y007790D01*
X023719Y007683D01*
X023291Y007683D01*
X023291Y007576D02*
X023291Y007790D01*
X023291Y007576D02*
X023398Y007469D01*
X023612Y007469D01*
X023936Y007469D02*
X024150Y007469D01*
X024043Y007469D02*
X024043Y008110D01*
X023936Y008110D01*
X024366Y007790D02*
X024366Y007576D01*
X024472Y007469D01*
X024793Y007469D01*
X024793Y008110D01*
X024793Y007896D02*
X024472Y007896D01*
X024366Y007790D01*
X020711Y007790D02*
X020711Y007683D01*
X020284Y007683D01*
X020284Y007576D02*
X020284Y007790D01*
X020390Y007896D01*
X020604Y007896D01*
X020711Y007790D01*
X020604Y007469D02*
X020390Y007469D01*
X020284Y007576D01*
X020066Y007896D02*
X019853Y007469D01*
X019639Y007896D01*
X019422Y007790D02*
X019422Y007469D01*
X019101Y007469D01*
X018995Y007576D01*
X019101Y007683D01*
X019422Y007683D01*
X019422Y007790D02*
X019315Y007896D01*
X019101Y007896D01*
X018777Y007896D02*
X018777Y007363D01*
X018670Y007256D01*
X018564Y007256D01*
X018457Y007469D02*
X018350Y007576D01*
X018350Y007790D01*
X018457Y007896D01*
X018777Y007896D01*
X018777Y007469D02*
X018457Y007469D01*
X018133Y007469D02*
X018133Y007896D01*
X017919Y008110D01*
X017706Y007896D01*
X017706Y007469D01*
X017706Y007790D02*
X018133Y007790D01*
X018026Y006929D02*
X017706Y006929D01*
X017706Y006288D01*
X017706Y006502D02*
X018026Y006502D01*
X018133Y006609D01*
X018133Y006822D01*
X018026Y006929D01*
X017919Y006502D02*
X018133Y006288D01*
X018350Y006395D02*
X018350Y006609D01*
X018457Y006715D01*
X018670Y006715D01*
X018777Y006609D01*
X018777Y006502D01*
X018350Y006502D01*
X018350Y006395D02*
X018457Y006288D01*
X018670Y006288D01*
X018995Y006715D02*
X019208Y006288D01*
X019422Y006715D01*
X054039Y032056D02*
X054146Y032163D01*
X054146Y032269D01*
X054039Y032376D01*
X053933Y032376D01*
X054039Y032376D02*
X054146Y032483D01*
X054146Y032590D01*
X054039Y032696D01*
X053826Y032696D01*
X053719Y032590D01*
X060045Y041828D02*
X060045Y042255D01*
X059832Y042042D02*
X060259Y042042D01*
X059078Y042042D02*
X058651Y042042D01*
X057503Y042042D02*
X057076Y042042D01*
X056322Y042042D02*
X055895Y042042D01*
X061800Y042042D02*
X062227Y042042D01*
X062014Y042255D02*
X062014Y041828D01*
X062902Y042081D02*
X063329Y042081D01*
X063116Y042294D02*
X063116Y041867D01*
D12*
X063739Y040510D02*
X063739Y038758D01*
X059802Y038758D01*
X060983Y038148D02*
X060983Y026337D01*
X060983Y019644D02*
X060983Y002715D01*
X062558Y002715D01*
X058227Y009014D02*
X058227Y010589D01*
X048384Y010589D01*
X043660Y010589D02*
X036180Y010589D01*
X036180Y009014D01*
X006652Y001337D02*
X006652Y016888D01*
X006652Y022006D02*
X006652Y038935D01*
X003109Y038935D01*
X007046Y040510D02*
X007046Y035786D01*
X025156Y035786D01*
X032243Y035786D02*
X055077Y035786D01*
X055077Y040510D01*
X055353Y040530D02*
X055353Y038758D01*
X055353Y038739D02*
X056337Y038739D01*
X060983Y038148D02*
X061770Y038148D01*
X006652Y001337D02*
X002735Y001337D01*
D13*
X003691Y001762D02*
X001014Y001762D01*
X001014Y003943D01*
X003691Y003943D01*
X003691Y001762D01*
X003691Y004612D02*
X001014Y004612D01*
X001014Y006793D01*
X003691Y006793D01*
X003691Y004612D01*
X003691Y007462D02*
X001014Y007462D01*
X001014Y009643D01*
X003691Y009643D01*
X003691Y007462D01*
X003691Y010312D02*
X001014Y010312D01*
X001014Y012493D01*
X003691Y012493D01*
X003691Y010312D01*
X003691Y013162D02*
X001014Y013162D01*
X001014Y015343D01*
X003691Y015343D01*
X003691Y013162D01*
X003691Y016012D02*
X001014Y016012D01*
X001014Y018193D01*
X003691Y018193D01*
X003691Y016012D01*
X003691Y018862D02*
X001014Y018862D01*
X001014Y021043D01*
X003691Y021043D01*
X003691Y018862D01*
X003691Y021712D02*
X001014Y021712D01*
X001014Y023893D01*
X003691Y023893D01*
X003691Y021712D01*
X003691Y024562D02*
X001014Y024562D01*
X001014Y026743D01*
X003691Y026743D01*
X003691Y024562D01*
X003691Y027412D02*
X001014Y027412D01*
X001014Y029593D01*
X003691Y029593D01*
X003691Y027412D01*
X003691Y030262D02*
X001014Y030262D01*
X001014Y032443D01*
X003691Y032443D01*
X003691Y030262D01*
X003691Y033112D02*
X001014Y033112D01*
X001014Y035293D01*
X003691Y035293D01*
X003691Y033112D01*
X003691Y035962D02*
X001014Y035962D01*
X001014Y038143D01*
X003691Y038143D01*
X003691Y035962D01*
X008674Y039014D02*
X008674Y041691D01*
X010855Y041691D01*
X010855Y039014D01*
X008674Y039014D01*
X011424Y039014D02*
X011424Y041691D01*
X013605Y041691D01*
X013605Y039014D01*
X011424Y039014D01*
X014174Y039014D02*
X014174Y041691D01*
X016355Y041691D01*
X016355Y039014D01*
X014174Y039014D01*
X016924Y039014D02*
X016924Y041691D01*
X019105Y041691D01*
X019105Y039014D01*
X016924Y039014D01*
X019674Y039014D02*
X019674Y041691D01*
X021855Y041691D01*
X021855Y039014D01*
X019674Y039014D01*
X022424Y039014D02*
X022424Y041691D01*
X024605Y041691D01*
X024605Y039014D01*
X022424Y039014D01*
X025150Y039014D02*
X025150Y041691D01*
X027331Y041691D01*
X027331Y039014D01*
X025150Y039014D01*
X027930Y039014D02*
X027930Y041691D01*
X030111Y041691D01*
X030111Y039014D01*
X027930Y039014D01*
X030680Y039014D02*
X030680Y041691D01*
X032861Y041691D01*
X032861Y039014D01*
X030680Y039014D01*
X033430Y039014D02*
X033430Y041691D01*
X035611Y041691D01*
X035611Y039014D01*
X033430Y039014D01*
X036180Y039014D02*
X036180Y041691D01*
X038361Y041691D01*
X038361Y039014D01*
X036180Y039014D01*
X038924Y039014D02*
X038924Y041691D01*
X041105Y041691D01*
X041105Y039014D01*
X038924Y039014D01*
X041674Y039014D02*
X041674Y041691D01*
X043855Y041691D01*
X043855Y039014D01*
X041674Y039014D01*
X044424Y039014D02*
X044424Y041691D01*
X046605Y041691D01*
X046605Y039014D01*
X044424Y039014D01*
X047174Y039014D02*
X047174Y041691D01*
X049355Y041691D01*
X049355Y039014D01*
X047174Y039014D01*
X049924Y039014D02*
X049924Y041691D01*
X052105Y041691D01*
X052105Y039014D01*
X049924Y039014D01*
X052713Y039014D02*
X052713Y041691D01*
X054894Y041691D01*
X054894Y039014D01*
X052713Y039014D01*
X055502Y039014D02*
X055502Y041691D01*
X057683Y041691D01*
X057683Y039014D01*
X055502Y039014D01*
X058620Y039014D02*
X058620Y041691D01*
X060802Y041691D01*
X060802Y039014D01*
X058620Y039014D01*
X061538Y039014D02*
X061538Y041691D01*
X063719Y041691D01*
X063719Y039014D01*
X061538Y039014D01*
X062014Y038451D02*
X064691Y038451D01*
X064691Y036270D01*
X062014Y036270D01*
X062014Y038451D01*
X062014Y035701D02*
X064691Y035701D01*
X064691Y033520D01*
X062014Y033520D01*
X062014Y035701D01*
X062014Y032951D02*
X064691Y032951D01*
X064691Y030770D01*
X062014Y030770D01*
X062014Y032951D01*
X062014Y030201D02*
X064691Y030201D01*
X064691Y028020D01*
X062014Y028020D01*
X062014Y030201D01*
X062014Y027451D02*
X064691Y027451D01*
X064691Y025270D01*
X062014Y025270D01*
X062014Y027451D01*
X062014Y024701D02*
X064691Y024701D01*
X064691Y022520D01*
X062014Y022520D01*
X062014Y024701D01*
X062014Y021951D02*
X064691Y021951D01*
X064691Y019770D01*
X062014Y019770D01*
X062014Y021951D01*
X062014Y019201D02*
X064691Y019201D01*
X064691Y017020D01*
X062014Y017020D01*
X062014Y019201D01*
X062014Y016451D02*
X064691Y016451D01*
X064691Y014270D01*
X062014Y014270D01*
X062014Y016451D01*
X062014Y013701D02*
X064691Y013701D01*
X064691Y011520D01*
X062014Y011520D01*
X062014Y013701D01*
X062014Y010951D02*
X064691Y010951D01*
X064691Y008770D01*
X062014Y008770D01*
X062014Y010951D01*
X062014Y008201D02*
X064691Y008201D01*
X064691Y006020D01*
X062014Y006020D01*
X062014Y008201D01*
X062014Y005451D02*
X064691Y005451D01*
X064691Y003270D01*
X062014Y003270D01*
X062014Y005451D01*
X058926Y003349D02*
X058926Y000672D01*
X056745Y000672D01*
X056745Y003349D01*
X058926Y003349D01*
X056164Y003349D02*
X056164Y000672D01*
X053983Y000672D01*
X053983Y003349D01*
X056164Y003349D01*
X053402Y003349D02*
X053402Y000672D01*
X051221Y000672D01*
X051221Y003349D01*
X053402Y003349D01*
X050640Y003349D02*
X050640Y000672D01*
X048459Y000672D01*
X048459Y003349D01*
X050640Y003349D01*
X047878Y003349D02*
X047878Y000672D01*
X045697Y000672D01*
X045697Y003349D01*
X047878Y003349D01*
X045152Y003349D02*
X045152Y000672D01*
X042971Y000672D01*
X042971Y003349D01*
X045152Y003349D01*
X042402Y003349D02*
X042402Y000672D01*
X040221Y000672D01*
X040221Y003349D01*
X042402Y003349D01*
X039652Y003349D02*
X039652Y000672D01*
X037471Y000672D01*
X037471Y003349D01*
X039652Y003349D01*
D14*
X040034Y004793D03*
X045510Y004793D03*
X051039Y004793D03*
X056579Y004793D03*
X057341Y009683D03*
X051818Y009683D03*
X046347Y009683D03*
X040877Y009683D03*
X043258Y033393D03*
X037738Y033393D03*
X032284Y033393D03*
X026760Y033393D03*
X021258Y033393D03*
X015738Y033393D03*
X010238Y033393D03*
X011028Y038313D03*
X016528Y038313D03*
X022028Y038313D03*
X027505Y038313D03*
X033042Y038313D03*
X038546Y038313D03*
X044028Y038313D03*
X049528Y038313D03*
X055028Y038313D03*
X048752Y033393D03*
D15*
X050522Y034703D03*
X053258Y037003D03*
X047758Y037003D03*
X045028Y034703D03*
X042258Y037003D03*
X039508Y034703D03*
X036776Y037003D03*
X034054Y034703D03*
X031272Y037003D03*
X028530Y034703D03*
X025735Y037003D03*
X023028Y034703D03*
X020258Y037003D03*
X017508Y034703D03*
X014758Y037003D03*
X012008Y034703D03*
X009258Y037003D03*
X039107Y008373D03*
X041804Y006103D03*
X044577Y008373D03*
X047280Y006103D03*
X050048Y008373D03*
X052809Y006103D03*
X055571Y008373D03*
X058349Y006103D03*
D16*
X056624Y005853D03*
X054534Y005853D03*
X051084Y005853D03*
X049005Y005853D03*
X045555Y005853D03*
X043529Y005853D03*
X040079Y005853D03*
X040832Y008623D03*
X042852Y008623D03*
X046302Y008623D03*
X048323Y008623D03*
X051773Y008623D03*
X053846Y008623D03*
X057296Y008623D03*
X060074Y005853D03*
X037382Y008623D03*
X037783Y034453D03*
X035779Y034453D03*
X032329Y034453D03*
X030255Y034453D03*
X026805Y034453D03*
X024753Y034453D03*
X021303Y034453D03*
X019233Y034453D03*
X015783Y034453D03*
X013733Y034453D03*
X010283Y034453D03*
X010983Y037253D03*
X013033Y037253D03*
X016483Y037253D03*
X018533Y037253D03*
X021983Y037253D03*
X024010Y037253D03*
X027460Y037253D03*
X029547Y037253D03*
X032997Y037253D03*
X035051Y037253D03*
X038501Y037253D03*
X040533Y037253D03*
X043983Y037253D03*
X046033Y037253D03*
X049483Y037253D03*
X051533Y037253D03*
X054983Y037253D03*
X052247Y034453D03*
X048797Y034453D03*
X046753Y034453D03*
X043303Y034453D03*
X041233Y034453D03*
X007533Y037253D03*
D17*
X008758Y037253D03*
X009758Y037253D03*
X011508Y034453D03*
X012508Y034453D03*
X017008Y034453D03*
X018008Y034453D03*
X019758Y037253D03*
X020758Y037253D03*
X022528Y034453D03*
X023528Y034453D03*
X025235Y037253D03*
X026235Y037253D03*
X028030Y034453D03*
X029030Y034453D03*
X030772Y037253D03*
X031772Y037253D03*
X033554Y034453D03*
X034554Y034453D03*
X036276Y037253D03*
X037276Y037253D03*
X039008Y034453D03*
X040008Y034453D03*
X041758Y037253D03*
X042758Y037253D03*
X047258Y037253D03*
X048258Y037253D03*
X050022Y034453D03*
X051022Y034453D03*
X052758Y037253D03*
X053758Y037253D03*
X045528Y034453D03*
X044528Y034453D03*
X015258Y037253D03*
X014258Y037253D03*
X038607Y008623D03*
X039607Y008623D03*
X041304Y005853D03*
X042304Y005853D03*
X044077Y008623D03*
X045077Y008623D03*
X046780Y005853D03*
X047780Y005853D03*
X049548Y008623D03*
X050548Y008623D03*
X052309Y005853D03*
X053309Y005853D03*
X055071Y008623D03*
X056071Y008623D03*
X057849Y005853D03*
X058849Y005853D03*
D18*
X031251Y003229D02*
X031251Y002989D01*
X030933Y002956D01*
X030899Y002850D01*
X030848Y002750D01*
X031050Y002503D01*
X030880Y002333D01*
X030633Y002535D01*
X030533Y002483D01*
X030392Y002824D01*
X030447Y002855D01*
X030496Y002895D01*
X030534Y002945D01*
X030930Y002945D01*
X030911Y002887D02*
X030486Y002887D01*
X030534Y002945D02*
X030562Y003002D01*
X030578Y003063D01*
X030581Y003126D01*
X030571Y003188D01*
X030549Y003247D01*
X030514Y003300D01*
X030470Y003346D01*
X030418Y003381D01*
X030359Y003404D01*
X030297Y003415D01*
X030234Y003414D01*
X030172Y003399D01*
X030115Y003372D01*
X030065Y003334D01*
X030023Y003287D01*
X029992Y003232D01*
X029973Y003171D01*
X029966Y003109D01*
X029972Y003049D01*
X029990Y002991D01*
X030018Y002938D01*
X030056Y002891D01*
X030103Y002853D01*
X030156Y002824D01*
X030015Y002483D01*
X029915Y002535D01*
X029668Y002333D01*
X029498Y002503D01*
X029700Y002750D01*
X029649Y002850D01*
X029615Y002956D01*
X029297Y002989D01*
X029297Y003229D01*
X029615Y003261D01*
X029649Y003368D01*
X029700Y003467D01*
X029498Y003715D01*
X029668Y003884D01*
X029915Y003683D01*
X030015Y003734D01*
X030122Y003768D01*
X030154Y004086D01*
X030394Y004086D01*
X030426Y003768D01*
X030533Y003734D01*
X030633Y003683D01*
X030880Y003884D01*
X031050Y003715D01*
X030848Y003467D01*
X030899Y003368D01*
X030933Y003261D01*
X031251Y003229D01*
X031211Y003233D02*
X030554Y003233D01*
X030573Y003175D02*
X031251Y003175D01*
X031251Y003117D02*
X030581Y003117D01*
X030577Y003060D02*
X031251Y003060D01*
X031251Y003002D02*
X030563Y003002D01*
X030401Y002829D02*
X030889Y002829D01*
X030859Y002772D02*
X030414Y002772D01*
X030437Y002714D02*
X030877Y002714D01*
X030924Y002657D02*
X030461Y002657D01*
X030485Y002599D02*
X030971Y002599D01*
X031018Y002541D02*
X030509Y002541D01*
X030533Y002484D02*
X030534Y002484D01*
X030695Y002484D02*
X031031Y002484D01*
X030973Y002426D02*
X030766Y002426D01*
X030836Y002369D02*
X030916Y002369D01*
X030111Y002714D02*
X029671Y002714D01*
X029689Y002772D02*
X030134Y002772D01*
X030147Y002829D02*
X029659Y002829D01*
X029637Y002887D02*
X030061Y002887D01*
X030015Y002945D02*
X029618Y002945D01*
X029624Y002657D02*
X030087Y002657D01*
X030063Y002599D02*
X029577Y002599D01*
X029530Y002541D02*
X030039Y002541D01*
X030015Y002484D02*
X030014Y002484D01*
X029853Y002484D02*
X029517Y002484D01*
X029575Y002426D02*
X029782Y002426D01*
X029712Y002369D02*
X029632Y002369D01*
X029297Y003002D02*
X029986Y003002D01*
X029971Y003060D02*
X029297Y003060D01*
X029297Y003117D02*
X029967Y003117D01*
X029974Y003175D02*
X029297Y003175D01*
X029337Y003233D02*
X029993Y003233D01*
X030026Y003290D02*
X029624Y003290D01*
X029643Y003348D02*
X030083Y003348D01*
X030200Y003405D02*
X029668Y003405D01*
X029698Y003463D02*
X030850Y003463D01*
X030880Y003405D02*
X030352Y003405D01*
X030467Y003348D02*
X030906Y003348D01*
X030924Y003290D02*
X030521Y003290D01*
X030611Y003693D02*
X029937Y003693D01*
X029902Y003693D02*
X029516Y003693D01*
X029535Y003751D02*
X029831Y003751D01*
X029761Y003809D02*
X029592Y003809D01*
X029650Y003866D02*
X029690Y003866D01*
X029563Y003636D02*
X030985Y003636D01*
X030938Y003578D02*
X029610Y003578D01*
X029657Y003521D02*
X030891Y003521D01*
X031032Y003693D02*
X030646Y003693D01*
X030717Y003751D02*
X031013Y003751D01*
X030956Y003809D02*
X030787Y003809D01*
X030858Y003866D02*
X030898Y003866D01*
X030479Y003751D02*
X030069Y003751D01*
X030126Y003809D02*
X030422Y003809D01*
X030416Y003866D02*
X030132Y003866D01*
X030138Y003924D02*
X030410Y003924D01*
X030405Y003981D02*
X030144Y003981D01*
X030149Y004039D02*
X030399Y004039D01*
M02*
